<?xml version="1.0" encoding="utf-8" standalone="no"?>
<!DOCTYPE svg PUBLIC "-//W3C//DTD SVG 1.1//EN"
  "http://www.w3.org/Graphics/SVG/1.1/DTD/svg11.dtd">
<svg xmlns:xlink="http://www.w3.org/1999/xlink" width="568.382187pt" height="308.55175pt" viewBox="0 0 568.382187 308.55175" xmlns="http://www.w3.org/2000/svg" version="1.1">
 <metadata>
  <rdf:RDF xmlns:dc="http://purl.org/dc/elements/1.1/" xmlns:cc="http://creativecommons.org/ns#" xmlns:rdf="http://www.w3.org/1999/02/22-rdf-syntax-ns#">
   <cc:Work>
    <dc:type rdf:resource="http://purl.org/dc/dcmitype/StillImage"/>
    <dc:date>2024-05-14T14:12:17.893969</dc:date>
    <dc:format>image/svg+xml</dc:format>
    <dc:creator>
     <cc:Agent>
      <dc:title>Matplotlib v3.8.4, https://matplotlib.org/</dc:title>
     </cc:Agent>
    </dc:creator>
   </cc:Work>
  </rdf:RDF>
 </metadata>
 <defs>
  <style type="text/css">*{stroke-linejoin: round; stroke-linecap: butt}</style>
 </defs>
 <g id="figure_1">
  <g id="patch_1">
   <path d="M 0 308.55175 
L 568.382187 308.55175 
L 568.382187 0 
L 0 0 
z
" style="fill: #ffffff"/>
  </g>
  <g id="axes_1">
   <g id="patch_2">
    <path d="M 64.885938 270.9955 
L 511.875938 270.9955 
L 511.875938 35.7555 
L 64.885938 35.7555 
z
" style="fill: #ffffff"/>
   </g>
   <g id="matplotlib.axis_1">
    <g id="xtick_1">
     <g id="line2d_1">
      <defs>
       <path id="m8d111b3b9b" d="M 0 0 
L 0 3.5 
" style="stroke: #000000; stroke-width: 0.8"/>
      </defs>
      <g>
       <use xlink:href="#m8d111b3b9b" x="85.203665" y="270.9955" style="stroke: #000000; stroke-width: 0.8"/>
      </g>
     </g>
     <g id="text_1">
      <!-- −60 -->
      <g transform="translate(74.651321 285.593937) scale(0.1 -0.1)">
       <defs>
        <path id="DejaVuSans-2212" d="M 678 2272 
L 4684 2272 
L 4684 1741 
L 678 1741 
L 678 2272 
z
" transform="scale(0.015625)"/>
        <path id="DejaVuSans-36" d="M 2113 2584 
Q 1688 2584 1439 2293 
Q 1191 2003 1191 1497 
Q 1191 994 1439 701 
Q 1688 409 2113 409 
Q 2538 409 2786 701 
Q 3034 994 3034 1497 
Q 3034 2003 2786 2293 
Q 2538 2584 2113 2584 
z
M 3366 4563 
L 3366 3988 
Q 3128 4100 2886 4159 
Q 2644 4219 2406 4219 
Q 1781 4219 1451 3797 
Q 1122 3375 1075 2522 
Q 1259 2794 1537 2939 
Q 1816 3084 2150 3084 
Q 2853 3084 3261 2657 
Q 3669 2231 3669 1497 
Q 3669 778 3244 343 
Q 2819 -91 2113 -91 
Q 1303 -91 875 529 
Q 447 1150 447 2328 
Q 447 3434 972 4092 
Q 1497 4750 2381 4750 
Q 2619 4750 2861 4703 
Q 3103 4656 3366 4563 
z
" transform="scale(0.015625)"/>
        <path id="DejaVuSans-30" d="M 2034 4250 
Q 1547 4250 1301 3770 
Q 1056 3291 1056 2328 
Q 1056 1369 1301 889 
Q 1547 409 2034 409 
Q 2525 409 2770 889 
Q 3016 1369 3016 2328 
Q 3016 3291 2770 3770 
Q 2525 4250 2034 4250 
z
M 2034 4750 
Q 2819 4750 3233 4129 
Q 3647 3509 3647 2328 
Q 3647 1150 3233 529 
Q 2819 -91 2034 -91 
Q 1250 -91 836 529 
Q 422 1150 422 2328 
Q 422 3509 836 4129 
Q 1250 4750 2034 4750 
z
" transform="scale(0.015625)"/>
       </defs>
       <use xlink:href="#DejaVuSans-2212"/>
       <use xlink:href="#DejaVuSans-36" x="83.789062"/>
       <use xlink:href="#DejaVuSans-30" x="147.412109"/>
      </g>
     </g>
    </g>
    <g id="xtick_2">
     <g id="line2d_2">
      <g>
       <use xlink:href="#m8d111b3b9b" x="152.929422" y="270.9955" style="stroke: #000000; stroke-width: 0.8"/>
      </g>
     </g>
     <g id="text_2">
      <!-- −40 -->
      <g transform="translate(142.377079 285.593937) scale(0.1 -0.1)">
       <defs>
        <path id="DejaVuSans-34" d="M 2419 4116 
L 825 1625 
L 2419 1625 
L 2419 4116 
z
M 2253 4666 
L 3047 4666 
L 3047 1625 
L 3713 1625 
L 3713 1100 
L 3047 1100 
L 3047 0 
L 2419 0 
L 2419 1100 
L 313 1100 
L 313 1709 
L 2253 4666 
z
" transform="scale(0.015625)"/>
       </defs>
       <use xlink:href="#DejaVuSans-2212"/>
       <use xlink:href="#DejaVuSans-34" x="83.789062"/>
       <use xlink:href="#DejaVuSans-30" x="147.412109"/>
      </g>
     </g>
    </g>
    <g id="xtick_3">
     <g id="line2d_3">
      <g>
       <use xlink:href="#m8d111b3b9b" x="220.65518" y="270.9955" style="stroke: #000000; stroke-width: 0.8"/>
      </g>
     </g>
     <g id="text_3">
      <!-- −20 -->
      <g transform="translate(210.102836 285.593937) scale(0.1 -0.1)">
       <defs>
        <path id="DejaVuSans-32" d="M 1228 531 
L 3431 531 
L 3431 0 
L 469 0 
L 469 531 
Q 828 903 1448 1529 
Q 2069 2156 2228 2338 
Q 2531 2678 2651 2914 
Q 2772 3150 2772 3378 
Q 2772 3750 2511 3984 
Q 2250 4219 1831 4219 
Q 1534 4219 1204 4116 
Q 875 4013 500 3803 
L 500 4441 
Q 881 4594 1212 4672 
Q 1544 4750 1819 4750 
Q 2544 4750 2975 4387 
Q 3406 4025 3406 3419 
Q 3406 3131 3298 2873 
Q 3191 2616 2906 2266 
Q 2828 2175 2409 1742 
Q 1991 1309 1228 531 
z
" transform="scale(0.015625)"/>
       </defs>
       <use xlink:href="#DejaVuSans-2212"/>
       <use xlink:href="#DejaVuSans-32" x="83.789062"/>
       <use xlink:href="#DejaVuSans-30" x="147.412109"/>
      </g>
     </g>
    </g>
    <g id="xtick_4">
     <g id="line2d_4">
      <g>
       <use xlink:href="#m8d111b3b9b" x="288.380938" y="270.9955" style="stroke: #000000; stroke-width: 0.8"/>
      </g>
     </g>
     <g id="text_4">
      <!-- 0 -->
      <g transform="translate(285.199688 285.593937) scale(0.1 -0.1)">
       <use xlink:href="#DejaVuSans-30"/>
      </g>
     </g>
    </g>
    <g id="xtick_5">
     <g id="line2d_5">
      <g>
       <use xlink:href="#m8d111b3b9b" x="356.106695" y="270.9955" style="stroke: #000000; stroke-width: 0.8"/>
      </g>
     </g>
     <g id="text_5">
      <!-- 20 -->
      <g transform="translate(349.744195 285.593937) scale(0.1 -0.1)">
       <use xlink:href="#DejaVuSans-32"/>
       <use xlink:href="#DejaVuSans-30" x="63.623047"/>
      </g>
     </g>
    </g>
    <g id="xtick_6">
     <g id="line2d_6">
      <g>
       <use xlink:href="#m8d111b3b9b" x="423.832453" y="270.9955" style="stroke: #000000; stroke-width: 0.8"/>
      </g>
     </g>
     <g id="text_6">
      <!-- 40 -->
      <g transform="translate(417.469953 285.593937) scale(0.1 -0.1)">
       <use xlink:href="#DejaVuSans-34"/>
       <use xlink:href="#DejaVuSans-30" x="63.623047"/>
      </g>
     </g>
    </g>
    <g id="xtick_7">
     <g id="line2d_7">
      <g>
       <use xlink:href="#m8d111b3b9b" x="491.55821" y="270.9955" style="stroke: #000000; stroke-width: 0.8"/>
      </g>
     </g>
     <g id="text_7">
      <!-- 60 -->
      <g transform="translate(485.19571 285.593937) scale(0.1 -0.1)">
       <use xlink:href="#DejaVuSans-36"/>
       <use xlink:href="#DejaVuSans-30" x="63.623047"/>
      </g>
     </g>
    </g>
    <g id="text_8">
     <!-- Position [µm] -->
     <g transform="translate(255.374688 299.272062) scale(0.1 -0.1)">
      <defs>
       <path id="DejaVuSans-50" d="M 1259 4147 
L 1259 2394 
L 2053 2394 
Q 2494 2394 2734 2622 
Q 2975 2850 2975 3272 
Q 2975 3691 2734 3919 
Q 2494 4147 2053 4147 
L 1259 4147 
z
M 628 4666 
L 2053 4666 
Q 2838 4666 3239 4311 
Q 3641 3956 3641 3272 
Q 3641 2581 3239 2228 
Q 2838 1875 2053 1875 
L 1259 1875 
L 1259 0 
L 628 0 
L 628 4666 
z
" transform="scale(0.015625)"/>
       <path id="DejaVuSans-6f" d="M 1959 3097 
Q 1497 3097 1228 2736 
Q 959 2375 959 1747 
Q 959 1119 1226 758 
Q 1494 397 1959 397 
Q 2419 397 2687 759 
Q 2956 1122 2956 1747 
Q 2956 2369 2687 2733 
Q 2419 3097 1959 3097 
z
M 1959 3584 
Q 2709 3584 3137 3096 
Q 3566 2609 3566 1747 
Q 3566 888 3137 398 
Q 2709 -91 1959 -91 
Q 1206 -91 779 398 
Q 353 888 353 1747 
Q 353 2609 779 3096 
Q 1206 3584 1959 3584 
z
" transform="scale(0.015625)"/>
       <path id="DejaVuSans-73" d="M 2834 3397 
L 2834 2853 
Q 2591 2978 2328 3040 
Q 2066 3103 1784 3103 
Q 1356 3103 1142 2972 
Q 928 2841 928 2578 
Q 928 2378 1081 2264 
Q 1234 2150 1697 2047 
L 1894 2003 
Q 2506 1872 2764 1633 
Q 3022 1394 3022 966 
Q 3022 478 2636 193 
Q 2250 -91 1575 -91 
Q 1294 -91 989 -36 
Q 684 19 347 128 
L 347 722 
Q 666 556 975 473 
Q 1284 391 1588 391 
Q 1994 391 2212 530 
Q 2431 669 2431 922 
Q 2431 1156 2273 1281 
Q 2116 1406 1581 1522 
L 1381 1569 
Q 847 1681 609 1914 
Q 372 2147 372 2553 
Q 372 3047 722 3315 
Q 1072 3584 1716 3584 
Q 2034 3584 2315 3537 
Q 2597 3491 2834 3397 
z
" transform="scale(0.015625)"/>
       <path id="DejaVuSans-69" d="M 603 3500 
L 1178 3500 
L 1178 0 
L 603 0 
L 603 3500 
z
M 603 4863 
L 1178 4863 
L 1178 4134 
L 603 4134 
L 603 4863 
z
" transform="scale(0.015625)"/>
       <path id="DejaVuSans-74" d="M 1172 4494 
L 1172 3500 
L 2356 3500 
L 2356 3053 
L 1172 3053 
L 1172 1153 
Q 1172 725 1289 603 
Q 1406 481 1766 481 
L 2356 481 
L 2356 0 
L 1766 0 
Q 1100 0 847 248 
Q 594 497 594 1153 
L 594 3053 
L 172 3053 
L 172 3500 
L 594 3500 
L 594 4494 
L 1172 4494 
z
" transform="scale(0.015625)"/>
       <path id="DejaVuSans-6e" d="M 3513 2113 
L 3513 0 
L 2938 0 
L 2938 2094 
Q 2938 2591 2744 2837 
Q 2550 3084 2163 3084 
Q 1697 3084 1428 2787 
Q 1159 2491 1159 1978 
L 1159 0 
L 581 0 
L 581 3500 
L 1159 3500 
L 1159 2956 
Q 1366 3272 1645 3428 
Q 1925 3584 2291 3584 
Q 2894 3584 3203 3211 
Q 3513 2838 3513 2113 
z
" transform="scale(0.015625)"/>
       <path id="DejaVuSans-20" transform="scale(0.015625)"/>
       <path id="DejaVuSans-5b" d="M 550 4863 
L 1875 4863 
L 1875 4416 
L 1125 4416 
L 1125 -397 
L 1875 -397 
L 1875 -844 
L 550 -844 
L 550 4863 
z
" transform="scale(0.015625)"/>
       <path id="DejaVuSans-b5" d="M 544 -1331 
L 544 3500 
L 1119 3500 
L 1119 1325 
Q 1119 872 1334 640 
Q 1550 409 1972 409 
Q 2434 409 2667 671 
Q 2900 934 2900 1459 
L 2900 3500 
L 3475 3500 
L 3475 806 
Q 3475 619 3529 530 
Q 3584 441 3700 441 
Q 3728 441 3778 458 
Q 3828 475 3916 513 
L 3916 50 
Q 3788 -22 3673 -56 
Q 3559 -91 3450 -91 
Q 3234 -91 3106 31 
Q 2978 153 2931 403 
Q 2775 156 2548 32 
Q 2322 -91 2016 -91 
Q 1697 -91 1473 31 
Q 1250 153 1119 397 
L 1119 -1331 
L 544 -1331 
z
" transform="scale(0.015625)"/>
       <path id="DejaVuSans-6d" d="M 3328 2828 
Q 3544 3216 3844 3400 
Q 4144 3584 4550 3584 
Q 5097 3584 5394 3201 
Q 5691 2819 5691 2113 
L 5691 0 
L 5113 0 
L 5113 2094 
Q 5113 2597 4934 2840 
Q 4756 3084 4391 3084 
Q 3944 3084 3684 2787 
Q 3425 2491 3425 1978 
L 3425 0 
L 2847 0 
L 2847 2094 
Q 2847 2600 2669 2842 
Q 2491 3084 2119 3084 
Q 1678 3084 1418 2786 
Q 1159 2488 1159 1978 
L 1159 0 
L 581 0 
L 581 3500 
L 1159 3500 
L 1159 2956 
Q 1356 3278 1631 3431 
Q 1906 3584 2284 3584 
Q 2666 3584 2933 3390 
Q 3200 3197 3328 2828 
z
" transform="scale(0.015625)"/>
       <path id="DejaVuSans-5d" d="M 1947 4863 
L 1947 -844 
L 622 -844 
L 622 -397 
L 1369 -397 
L 1369 4416 
L 622 4416 
L 622 4863 
L 1947 4863 
z
" transform="scale(0.015625)"/>
      </defs>
      <use xlink:href="#DejaVuSans-50"/>
      <use xlink:href="#DejaVuSans-6f" x="56.677734"/>
      <use xlink:href="#DejaVuSans-73" x="117.859375"/>
      <use xlink:href="#DejaVuSans-69" x="169.958984"/>
      <use xlink:href="#DejaVuSans-74" x="197.742188"/>
      <use xlink:href="#DejaVuSans-69" x="236.951172"/>
      <use xlink:href="#DejaVuSans-6f" x="264.734375"/>
      <use xlink:href="#DejaVuSans-6e" x="325.916016"/>
      <use xlink:href="#DejaVuSans-20" x="389.294922"/>
      <use xlink:href="#DejaVuSans-5b" x="421.082031"/>
      <use xlink:href="#DejaVuSans-b5" x="460.095703"/>
      <use xlink:href="#DejaVuSans-6d" x="523.71875"/>
      <use xlink:href="#DejaVuSans-5d" x="621.130859"/>
     </g>
    </g>
   </g>
   <g id="matplotlib.axis_2">
    <g id="ytick_1">
     <g id="line2d_8">
      <defs>
       <path id="m7c269026b7" d="M 0 0 
L -3.5 0 
" style="stroke: #000000; stroke-width: 0.8"/>
      </defs>
      <g>
       <use xlink:href="#m7c269026b7" x="64.885938" y="259.451633" style="stroke: #000000; stroke-width: 0.8"/>
      </g>
     </g>
     <g id="text_9">
      <!-- −0.100 -->
      <g style="fill: #1f77b4" transform="translate(20.878125 263.250852) scale(0.1 -0.1)">
       <defs>
        <path id="DejaVuSans-2e" d="M 684 794 
L 1344 794 
L 1344 0 
L 684 0 
L 684 794 
z
" transform="scale(0.015625)"/>
        <path id="DejaVuSans-31" d="M 794 531 
L 1825 531 
L 1825 4091 
L 703 3866 
L 703 4441 
L 1819 4666 
L 2450 4666 
L 2450 531 
L 3481 531 
L 3481 0 
L 794 0 
L 794 531 
z
" transform="scale(0.015625)"/>
       </defs>
       <use xlink:href="#DejaVuSans-2212"/>
       <use xlink:href="#DejaVuSans-30" x="83.789062"/>
       <use xlink:href="#DejaVuSans-2e" x="147.412109"/>
       <use xlink:href="#DejaVuSans-31" x="179.199219"/>
       <use xlink:href="#DejaVuSans-30" x="242.822266"/>
       <use xlink:href="#DejaVuSans-30" x="306.445312"/>
      </g>
     </g>
    </g>
    <g id="ytick_2">
     <g id="line2d_9">
      <g>
       <use xlink:href="#m7c269026b7" x="64.885938" y="232.9326" style="stroke: #000000; stroke-width: 0.8"/>
      </g>
     </g>
     <g id="text_10">
      <!-- −0.075 -->
      <g style="fill: #1f77b4" transform="translate(20.878125 236.731819) scale(0.1 -0.1)">
       <defs>
        <path id="DejaVuSans-37" d="M 525 4666 
L 3525 4666 
L 3525 4397 
L 1831 0 
L 1172 0 
L 2766 4134 
L 525 4134 
L 525 4666 
z
" transform="scale(0.015625)"/>
        <path id="DejaVuSans-35" d="M 691 4666 
L 3169 4666 
L 3169 4134 
L 1269 4134 
L 1269 2991 
Q 1406 3038 1543 3061 
Q 1681 3084 1819 3084 
Q 2600 3084 3056 2656 
Q 3513 2228 3513 1497 
Q 3513 744 3044 326 
Q 2575 -91 1722 -91 
Q 1428 -91 1123 -41 
Q 819 9 494 109 
L 494 744 
Q 775 591 1075 516 
Q 1375 441 1709 441 
Q 2250 441 2565 725 
Q 2881 1009 2881 1497 
Q 2881 1984 2565 2268 
Q 2250 2553 1709 2553 
Q 1456 2553 1204 2497 
Q 953 2441 691 2322 
L 691 4666 
z
" transform="scale(0.015625)"/>
       </defs>
       <use xlink:href="#DejaVuSans-2212"/>
       <use xlink:href="#DejaVuSans-30" x="83.789062"/>
       <use xlink:href="#DejaVuSans-2e" x="147.412109"/>
       <use xlink:href="#DejaVuSans-30" x="179.199219"/>
       <use xlink:href="#DejaVuSans-37" x="242.822266"/>
       <use xlink:href="#DejaVuSans-35" x="306.445312"/>
      </g>
     </g>
    </g>
    <g id="ytick_3">
     <g id="line2d_10">
      <g>
       <use xlink:href="#m7c269026b7" x="64.885938" y="206.413567" style="stroke: #000000; stroke-width: 0.8"/>
      </g>
     </g>
     <g id="text_11">
      <!-- −0.050 -->
      <g style="fill: #1f77b4" transform="translate(20.878125 210.212785) scale(0.1 -0.1)">
       <use xlink:href="#DejaVuSans-2212"/>
       <use xlink:href="#DejaVuSans-30" x="83.789062"/>
       <use xlink:href="#DejaVuSans-2e" x="147.412109"/>
       <use xlink:href="#DejaVuSans-30" x="179.199219"/>
       <use xlink:href="#DejaVuSans-35" x="242.822266"/>
       <use xlink:href="#DejaVuSans-30" x="306.445312"/>
      </g>
     </g>
    </g>
    <g id="ytick_4">
     <g id="line2d_11">
      <g>
       <use xlink:href="#m7c269026b7" x="64.885938" y="179.894533" style="stroke: #000000; stroke-width: 0.8"/>
      </g>
     </g>
     <g id="text_12">
      <!-- −0.025 -->
      <g style="fill: #1f77b4" transform="translate(20.878125 183.693752) scale(0.1 -0.1)">
       <use xlink:href="#DejaVuSans-2212"/>
       <use xlink:href="#DejaVuSans-30" x="83.789062"/>
       <use xlink:href="#DejaVuSans-2e" x="147.412109"/>
       <use xlink:href="#DejaVuSans-30" x="179.199219"/>
       <use xlink:href="#DejaVuSans-32" x="242.822266"/>
       <use xlink:href="#DejaVuSans-35" x="306.445312"/>
      </g>
     </g>
    </g>
    <g id="ytick_5">
     <g id="line2d_12">
      <g>
       <use xlink:href="#m7c269026b7" x="64.885938" y="153.3755" style="stroke: #000000; stroke-width: 0.8"/>
      </g>
     </g>
     <g id="text_13">
      <!-- 0.000 -->
      <g style="fill: #1f77b4" transform="translate(29.257813 157.174719) scale(0.1 -0.1)">
       <use xlink:href="#DejaVuSans-30"/>
       <use xlink:href="#DejaVuSans-2e" x="63.623047"/>
       <use xlink:href="#DejaVuSans-30" x="95.410156"/>
       <use xlink:href="#DejaVuSans-30" x="159.033203"/>
       <use xlink:href="#DejaVuSans-30" x="222.65625"/>
      </g>
     </g>
    </g>
    <g id="ytick_6">
     <g id="line2d_13">
      <g>
       <use xlink:href="#m7c269026b7" x="64.885938" y="126.856467" style="stroke: #000000; stroke-width: 0.8"/>
      </g>
     </g>
     <g id="text_14">
      <!-- 0.025 -->
      <g style="fill: #1f77b4" transform="translate(29.257813 130.655685) scale(0.1 -0.1)">
       <use xlink:href="#DejaVuSans-30"/>
       <use xlink:href="#DejaVuSans-2e" x="63.623047"/>
       <use xlink:href="#DejaVuSans-30" x="95.410156"/>
       <use xlink:href="#DejaVuSans-32" x="159.033203"/>
       <use xlink:href="#DejaVuSans-35" x="222.65625"/>
      </g>
     </g>
    </g>
    <g id="ytick_7">
     <g id="line2d_14">
      <g>
       <use xlink:href="#m7c269026b7" x="64.885938" y="100.337433" style="stroke: #000000; stroke-width: 0.8"/>
      </g>
     </g>
     <g id="text_15">
      <!-- 0.050 -->
      <g style="fill: #1f77b4" transform="translate(29.257813 104.136652) scale(0.1 -0.1)">
       <use xlink:href="#DejaVuSans-30"/>
       <use xlink:href="#DejaVuSans-2e" x="63.623047"/>
       <use xlink:href="#DejaVuSans-30" x="95.410156"/>
       <use xlink:href="#DejaVuSans-35" x="159.033203"/>
       <use xlink:href="#DejaVuSans-30" x="222.65625"/>
      </g>
     </g>
    </g>
    <g id="ytick_8">
     <g id="line2d_15">
      <g>
       <use xlink:href="#m7c269026b7" x="64.885938" y="73.8184" style="stroke: #000000; stroke-width: 0.8"/>
      </g>
     </g>
     <g id="text_16">
      <!-- 0.075 -->
      <g style="fill: #1f77b4" transform="translate(29.257813 77.617619) scale(0.1 -0.1)">
       <use xlink:href="#DejaVuSans-30"/>
       <use xlink:href="#DejaVuSans-2e" x="63.623047"/>
       <use xlink:href="#DejaVuSans-30" x="95.410156"/>
       <use xlink:href="#DejaVuSans-37" x="159.033203"/>
       <use xlink:href="#DejaVuSans-35" x="222.65625"/>
      </g>
     </g>
    </g>
    <g id="ytick_9">
     <g id="line2d_16">
      <g>
       <use xlink:href="#m7c269026b7" x="64.885938" y="47.299367" style="stroke: #000000; stroke-width: 0.8"/>
      </g>
     </g>
     <g id="text_17">
      <!-- 0.100 -->
      <g style="fill: #1f77b4" transform="translate(29.257813 51.098585) scale(0.1 -0.1)">
       <use xlink:href="#DejaVuSans-30"/>
       <use xlink:href="#DejaVuSans-2e" x="63.623047"/>
       <use xlink:href="#DejaVuSans-31" x="95.410156"/>
       <use xlink:href="#DejaVuSans-30" x="159.033203"/>
       <use xlink:href="#DejaVuSans-30" x="222.65625"/>
      </g>
     </g>
    </g>
    <g id="text_18">
     <!-- Electric field strength [V/µm] -->
     <g style="fill: #1f77b4" transform="translate(14.798438 225.573937) rotate(-90) scale(0.1 -0.1)">
      <defs>
       <path id="DejaVuSans-45" d="M 628 4666 
L 3578 4666 
L 3578 4134 
L 1259 4134 
L 1259 2753 
L 3481 2753 
L 3481 2222 
L 1259 2222 
L 1259 531 
L 3634 531 
L 3634 0 
L 628 0 
L 628 4666 
z
" transform="scale(0.015625)"/>
       <path id="DejaVuSans-6c" d="M 603 4863 
L 1178 4863 
L 1178 0 
L 603 0 
L 603 4863 
z
" transform="scale(0.015625)"/>
       <path id="DejaVuSans-65" d="M 3597 1894 
L 3597 1613 
L 953 1613 
Q 991 1019 1311 708 
Q 1631 397 2203 397 
Q 2534 397 2845 478 
Q 3156 559 3463 722 
L 3463 178 
Q 3153 47 2828 -22 
Q 2503 -91 2169 -91 
Q 1331 -91 842 396 
Q 353 884 353 1716 
Q 353 2575 817 3079 
Q 1281 3584 2069 3584 
Q 2775 3584 3186 3129 
Q 3597 2675 3597 1894 
z
M 3022 2063 
Q 3016 2534 2758 2815 
Q 2500 3097 2075 3097 
Q 1594 3097 1305 2825 
Q 1016 2553 972 2059 
L 3022 2063 
z
" transform="scale(0.015625)"/>
       <path id="DejaVuSans-63" d="M 3122 3366 
L 3122 2828 
Q 2878 2963 2633 3030 
Q 2388 3097 2138 3097 
Q 1578 3097 1268 2742 
Q 959 2388 959 1747 
Q 959 1106 1268 751 
Q 1578 397 2138 397 
Q 2388 397 2633 464 
Q 2878 531 3122 666 
L 3122 134 
Q 2881 22 2623 -34 
Q 2366 -91 2075 -91 
Q 1284 -91 818 406 
Q 353 903 353 1747 
Q 353 2603 823 3093 
Q 1294 3584 2113 3584 
Q 2378 3584 2631 3529 
Q 2884 3475 3122 3366 
z
" transform="scale(0.015625)"/>
       <path id="DejaVuSans-72" d="M 2631 2963 
Q 2534 3019 2420 3045 
Q 2306 3072 2169 3072 
Q 1681 3072 1420 2755 
Q 1159 2438 1159 1844 
L 1159 0 
L 581 0 
L 581 3500 
L 1159 3500 
L 1159 2956 
Q 1341 3275 1631 3429 
Q 1922 3584 2338 3584 
Q 2397 3584 2469 3576 
Q 2541 3569 2628 3553 
L 2631 2963 
z
" transform="scale(0.015625)"/>
       <path id="DejaVuSans-66" d="M 2375 4863 
L 2375 4384 
L 1825 4384 
Q 1516 4384 1395 4259 
Q 1275 4134 1275 3809 
L 1275 3500 
L 2222 3500 
L 2222 3053 
L 1275 3053 
L 1275 0 
L 697 0 
L 697 3053 
L 147 3053 
L 147 3500 
L 697 3500 
L 697 3744 
Q 697 4328 969 4595 
Q 1241 4863 1831 4863 
L 2375 4863 
z
" transform="scale(0.015625)"/>
       <path id="DejaVuSans-64" d="M 2906 2969 
L 2906 4863 
L 3481 4863 
L 3481 0 
L 2906 0 
L 2906 525 
Q 2725 213 2448 61 
Q 2172 -91 1784 -91 
Q 1150 -91 751 415 
Q 353 922 353 1747 
Q 353 2572 751 3078 
Q 1150 3584 1784 3584 
Q 2172 3584 2448 3432 
Q 2725 3281 2906 2969 
z
M 947 1747 
Q 947 1113 1208 752 
Q 1469 391 1925 391 
Q 2381 391 2643 752 
Q 2906 1113 2906 1747 
Q 2906 2381 2643 2742 
Q 2381 3103 1925 3103 
Q 1469 3103 1208 2742 
Q 947 2381 947 1747 
z
" transform="scale(0.015625)"/>
       <path id="DejaVuSans-67" d="M 2906 1791 
Q 2906 2416 2648 2759 
Q 2391 3103 1925 3103 
Q 1463 3103 1205 2759 
Q 947 2416 947 1791 
Q 947 1169 1205 825 
Q 1463 481 1925 481 
Q 2391 481 2648 825 
Q 2906 1169 2906 1791 
z
M 3481 434 
Q 3481 -459 3084 -895 
Q 2688 -1331 1869 -1331 
Q 1566 -1331 1297 -1286 
Q 1028 -1241 775 -1147 
L 775 -588 
Q 1028 -725 1275 -790 
Q 1522 -856 1778 -856 
Q 2344 -856 2625 -561 
Q 2906 -266 2906 331 
L 2906 616 
Q 2728 306 2450 153 
Q 2172 0 1784 0 
Q 1141 0 747 490 
Q 353 981 353 1791 
Q 353 2603 747 3093 
Q 1141 3584 1784 3584 
Q 2172 3584 2450 3431 
Q 2728 3278 2906 2969 
L 2906 3500 
L 3481 3500 
L 3481 434 
z
" transform="scale(0.015625)"/>
       <path id="DejaVuSans-68" d="M 3513 2113 
L 3513 0 
L 2938 0 
L 2938 2094 
Q 2938 2591 2744 2837 
Q 2550 3084 2163 3084 
Q 1697 3084 1428 2787 
Q 1159 2491 1159 1978 
L 1159 0 
L 581 0 
L 581 4863 
L 1159 4863 
L 1159 2956 
Q 1366 3272 1645 3428 
Q 1925 3584 2291 3584 
Q 2894 3584 3203 3211 
Q 3513 2838 3513 2113 
z
" transform="scale(0.015625)"/>
       <path id="DejaVuSans-56" d="M 1831 0 
L 50 4666 
L 709 4666 
L 2188 738 
L 3669 4666 
L 4325 4666 
L 2547 0 
L 1831 0 
z
" transform="scale(0.015625)"/>
       <path id="DejaVuSans-2f" d="M 1625 4666 
L 2156 4666 
L 531 -594 
L 0 -594 
L 1625 4666 
z
" transform="scale(0.015625)"/>
      </defs>
      <use xlink:href="#DejaVuSans-45"/>
      <use xlink:href="#DejaVuSans-6c" x="63.183594"/>
      <use xlink:href="#DejaVuSans-65" x="90.966797"/>
      <use xlink:href="#DejaVuSans-63" x="152.490234"/>
      <use xlink:href="#DejaVuSans-74" x="207.470703"/>
      <use xlink:href="#DejaVuSans-72" x="246.679688"/>
      <use xlink:href="#DejaVuSans-69" x="287.792969"/>
      <use xlink:href="#DejaVuSans-63" x="315.576172"/>
      <use xlink:href="#DejaVuSans-20" x="370.556641"/>
      <use xlink:href="#DejaVuSans-66" x="402.34375"/>
      <use xlink:href="#DejaVuSans-69" x="437.548828"/>
      <use xlink:href="#DejaVuSans-65" x="465.332031"/>
      <use xlink:href="#DejaVuSans-6c" x="526.855469"/>
      <use xlink:href="#DejaVuSans-64" x="554.638672"/>
      <use xlink:href="#DejaVuSans-20" x="618.115234"/>
      <use xlink:href="#DejaVuSans-73" x="649.902344"/>
      <use xlink:href="#DejaVuSans-74" x="702.001953"/>
      <use xlink:href="#DejaVuSans-72" x="741.210938"/>
      <use xlink:href="#DejaVuSans-65" x="780.074219"/>
      <use xlink:href="#DejaVuSans-6e" x="841.597656"/>
      <use xlink:href="#DejaVuSans-67" x="904.976562"/>
      <use xlink:href="#DejaVuSans-74" x="968.453125"/>
      <use xlink:href="#DejaVuSans-68" x="1007.662109"/>
      <use xlink:href="#DejaVuSans-20" x="1071.041016"/>
      <use xlink:href="#DejaVuSans-5b" x="1102.828125"/>
      <use xlink:href="#DejaVuSans-56" x="1141.841797"/>
      <use xlink:href="#DejaVuSans-2f" x="1210.25"/>
      <use xlink:href="#DejaVuSans-b5" x="1243.941406"/>
      <use xlink:href="#DejaVuSans-6d" x="1307.564453"/>
      <use xlink:href="#DejaVuSans-5d" x="1404.976562"/>
     </g>
    </g>
   </g>
   <g id="line2d_17">
    <path d="M 85.203665 153.376253 
L 123.130089 153.525056 
L 135.997983 153.79139 
L 144.125074 154.167855 
L 150.220392 154.65968 
L 154.961195 155.243981 
L 159.024741 155.950741 
L 162.411028 156.737888 
L 165.797316 157.762059 
L 168.506347 158.797566 
L 171.215377 160.07146 
L 173.924407 161.635177 
L 175.95618 163.034273 
L 177.987953 164.659494 
L 180.019725 166.543188 
L 182.051498 168.720732 
L 184.083271 171.230185 
L 186.115044 174.111609 
L 188.146816 177.40596 
L 190.178589 181.153397 
L 192.210362 185.390841 
L 194.242134 190.14861 
L 196.273907 195.445919 
L 198.30568 201.285079 
L 201.01471 209.871182 
L 203.723741 219.230493 
L 211.173574 245.824489 
L 213.205347 251.939435 
L 214.559862 255.32359 
L 215.914377 257.964343 
L 216.591634 258.951227 
L 217.268892 259.68543 
L 217.94615 260.14373 
L 218.623407 260.302773 
L 219.300665 260.139299 
L 219.977922 259.630401 
L 220.65518 258.753813 
L 221.332438 257.488228 
L 222.009695 255.813647 
L 222.686953 253.711758 
L 223.36421 251.166339 
L 224.718725 244.693093 
L 226.073241 236.32281 
L 227.427756 226.047109 
L 228.782271 213.935521 
L 230.136786 200.149748 
L 232.168559 176.943833 
L 237.586619 111.848892 
L 238.941134 98.452095 
L 240.29565 87.734121 
L 240.972907 83.610782 
L 241.650165 80.422587 
L 242.327422 78.24201 
L 243.00468 77.130104 
L 243.681938 77.134378 
L 244.359195 78.286744 
L 245.036453 80.601601 
L 245.71371 84.074126 
L 246.390968 88.678824 
L 247.068225 94.368418 
L 248.422741 108.700506 
L 249.777256 126.241789 
L 254.518059 193.746841 
L 255.872574 208.15228 
L 256.549831 213.555615 
L 257.227089 217.550741 
L 257.904347 220.016048 
L 258.581604 220.863718 
L 259.258862 220.043939 
L 259.936119 217.54829 
L 260.613377 213.412121 
L 261.290634 207.715775 
L 261.967892 200.584527 
L 263.322407 182.732889 
L 265.35418 150.630332 
L 267.385953 119.275723 
L 268.740468 102.936783 
L 269.417725 96.962614 
L 270.094983 92.736075 
L 270.772241 90.408281 
L 271.449498 90.072507 
L 272.126756 91.759281 
L 272.804013 95.433491 
L 273.481271 100.993712 
L 274.158528 108.273869 
L 275.513044 127.033047 
L 279.576589 192.356789 
L 280.253847 200.608895 
L 280.931104 207.204976 
L 281.608362 211.905399 
L 282.285619 214.536293 
L 282.962877 214.996718 
L 283.640134 213.263177 
L 284.317392 209.391236 
L 284.99465 203.514147 
L 285.671907 195.83849 
L 287.026422 176.238628 
L 290.41271 120.114029 
L 291.089968 110.91251 
L 291.767225 103.236853 
L 292.444483 97.359764 
L 293.121741 93.487823 
L 293.798998 91.754282 
L 294.476256 92.214707 
L 295.153513 94.845601 
L 295.830771 99.546024 
L 296.508028 106.142105 
L 297.185286 114.394211 
L 298.539801 134.638147 
L 301.926089 189.703717 
L 302.603347 198.477131 
L 303.280604 205.757288 
L 303.957862 211.317509 
L 304.635119 214.991719 
L 305.312377 216.678493 
L 305.989634 216.342719 
L 306.666892 214.014925 
L 307.34415 209.788386 
L 308.021407 203.814217 
L 308.698665 196.294715 
L 310.05318 177.635227 
L 314.116725 114.563877 
L 315.471241 99.035225 
L 316.148498 93.338879 
L 316.825756 89.20271 
L 317.503013 86.707061 
L 318.180271 85.887282 
L 318.857528 86.734952 
L 319.534786 89.200259 
L 320.212044 93.195385 
L 320.889301 98.59872 
L 322.243816 113.004159 
L 323.598331 130.961861 
L 328.339134 198.050494 
L 329.69365 212.382582 
L 330.370907 218.072176 
L 331.048165 222.676874 
L 331.725422 226.149399 
L 332.40268 228.464256 
L 333.079938 229.616622 
L 333.757195 229.620896 
L 334.434453 228.50899 
L 335.11171 226.328413 
L 335.788968 223.140218 
L 336.466225 219.016879 
L 337.820741 208.298905 
L 339.175256 194.902108 
L 341.207028 171.489137 
L 345.947831 114.043223 
L 347.979604 92.815479 
L 349.334119 80.703891 
L 350.688634 70.42819 
L 352.04315 62.057907 
L 353.397665 55.584661 
L 354.074922 53.039242 
L 354.75218 50.937353 
L 355.429438 49.262772 
L 356.106695 47.997187 
L 356.783953 47.120599 
L 357.46121 46.611701 
L 358.138468 46.448227 
L 358.815725 46.60727 
L 359.492983 47.06557 
L 360.170241 47.799773 
L 360.847498 48.786657 
L 362.202013 51.42741 
L 363.556528 54.811565 
L 364.911044 58.774925 
L 366.942816 65.483791 
L 370.329104 77.683257 
L 374.39265 92.282371 
L 377.10168 101.281662 
L 379.81071 109.418396 
L 381.842483 114.897095 
L 383.874256 119.833277 
L 385.906028 124.241238 
L 387.937801 128.148155 
L 389.969574 131.589174 
L 392.001347 134.603688 
L 394.033119 137.232608 
L 396.064892 139.516443 
L 398.096665 141.494014 
L 400.128438 143.201644 
L 402.16021 144.672715 
L 404.869241 146.317987 
L 407.578271 147.659169 
L 410.287301 148.749921 
L 413.673589 149.829204 
L 417.059877 150.659016 
L 421.123422 151.404301 
L 425.864225 152.020599 
L 431.282286 152.493347 
L 438.054862 152.859882 
L 447.536468 153.132604 
L 462.436134 153.301624 
L 491.55821 153.374747 
L 491.55821 153.374747 
" clip-path="url(#p172aa018cb)" style="fill: none; stroke: #1f77b4; stroke-width: 1.5; stroke-linecap: square"/>
   </g>
   <g id="patch_3">
    <path d="M 64.885938 270.9955 
L 64.885938 35.7555 
" style="fill: none; stroke: #000000; stroke-width: 0.8; stroke-linejoin: miter; stroke-linecap: square"/>
   </g>
   <g id="patch_4">
    <path d="M 511.875938 270.9955 
L 511.875938 35.7555 
" style="fill: none; stroke: #000000; stroke-width: 0.8; stroke-linejoin: miter; stroke-linecap: square"/>
   </g>
   <g id="patch_5">
    <path d="M 64.885938 270.9955 
L 511.875938 270.9955 
" style="fill: none; stroke: #000000; stroke-width: 0.8; stroke-linejoin: miter; stroke-linecap: square"/>
   </g>
   <g id="patch_6">
    <path d="M 64.885938 35.7555 
L 511.875938 35.7555 
" style="fill: none; stroke: #000000; stroke-width: 0.8; stroke-linejoin: miter; stroke-linecap: square"/>
   </g>
  </g>
  <g id="axes_2">
   <g id="matplotlib.axis_3">
    <g id="ytick_10">
     <g id="line2d_18">
      <defs>
       <path id="m810c31ad4b" d="M 0 0 
L 3.5 0 
" style="stroke: #000000; stroke-width: 0.8"/>
      </defs>
      <g>
       <use xlink:href="#m810c31ad4b" x="511.875938" y="260.302797" style="stroke: #000000; stroke-width: 0.8"/>
      </g>
     </g>
     <g id="text_19">
      <!-- 2.250 -->
      <g style="fill: #d62728" transform="translate(518.875938 264.102016) scale(0.1 -0.1)">
       <use xlink:href="#DejaVuSans-32"/>
       <use xlink:href="#DejaVuSans-2e" x="63.623047"/>
       <use xlink:href="#DejaVuSans-32" x="95.410156"/>
       <use xlink:href="#DejaVuSans-35" x="159.033203"/>
       <use xlink:href="#DejaVuSans-30" x="222.65625"/>
      </g>
     </g>
    </g>
    <g id="ytick_11">
     <g id="line2d_19">
      <g>
       <use xlink:href="#m810c31ad4b" x="511.875938" y="231.788854" style="stroke: #000000; stroke-width: 0.8"/>
      </g>
     </g>
     <g id="text_20">
      <!-- 2.252 -->
      <g style="fill: #d62728" transform="translate(518.875938 235.588073) scale(0.1 -0.1)">
       <use xlink:href="#DejaVuSans-32"/>
       <use xlink:href="#DejaVuSans-2e" x="63.623047"/>
       <use xlink:href="#DejaVuSans-32" x="95.410156"/>
       <use xlink:href="#DejaVuSans-35" x="159.033203"/>
       <use xlink:href="#DejaVuSans-32" x="222.65625"/>
      </g>
     </g>
    </g>
    <g id="ytick_12">
     <g id="line2d_20">
      <g>
       <use xlink:href="#m810c31ad4b" x="511.875938" y="203.274912" style="stroke: #000000; stroke-width: 0.8"/>
      </g>
     </g>
     <g id="text_21">
      <!-- 2.254 -->
      <g style="fill: #d62728" transform="translate(518.875938 207.07413) scale(0.1 -0.1)">
       <use xlink:href="#DejaVuSans-32"/>
       <use xlink:href="#DejaVuSans-2e" x="63.623047"/>
       <use xlink:href="#DejaVuSans-32" x="95.410156"/>
       <use xlink:href="#DejaVuSans-35" x="159.033203"/>
       <use xlink:href="#DejaVuSans-34" x="222.65625"/>
      </g>
     </g>
    </g>
    <g id="ytick_13">
     <g id="line2d_21">
      <g>
       <use xlink:href="#m810c31ad4b" x="511.875938" y="174.760969" style="stroke: #000000; stroke-width: 0.8"/>
      </g>
     </g>
     <g id="text_22">
      <!-- 2.256 -->
      <g style="fill: #d62728" transform="translate(518.875938 178.560188) scale(0.1 -0.1)">
       <use xlink:href="#DejaVuSans-32"/>
       <use xlink:href="#DejaVuSans-2e" x="63.623047"/>
       <use xlink:href="#DejaVuSans-32" x="95.410156"/>
       <use xlink:href="#DejaVuSans-35" x="159.033203"/>
       <use xlink:href="#DejaVuSans-36" x="222.65625"/>
      </g>
     </g>
    </g>
    <g id="ytick_14">
     <g id="line2d_22">
      <g>
       <use xlink:href="#m810c31ad4b" x="511.875938" y="146.247026" style="stroke: #000000; stroke-width: 0.8"/>
      </g>
     </g>
     <g id="text_23">
      <!-- 2.258 -->
      <g style="fill: #d62728" transform="translate(518.875938 150.046245) scale(0.1 -0.1)">
       <defs>
        <path id="DejaVuSans-38" d="M 2034 2216 
Q 1584 2216 1326 1975 
Q 1069 1734 1069 1313 
Q 1069 891 1326 650 
Q 1584 409 2034 409 
Q 2484 409 2743 651 
Q 3003 894 3003 1313 
Q 3003 1734 2745 1975 
Q 2488 2216 2034 2216 
z
M 1403 2484 
Q 997 2584 770 2862 
Q 544 3141 544 3541 
Q 544 4100 942 4425 
Q 1341 4750 2034 4750 
Q 2731 4750 3128 4425 
Q 3525 4100 3525 3541 
Q 3525 3141 3298 2862 
Q 3072 2584 2669 2484 
Q 3125 2378 3379 2068 
Q 3634 1759 3634 1313 
Q 3634 634 3220 271 
Q 2806 -91 2034 -91 
Q 1263 -91 848 271 
Q 434 634 434 1313 
Q 434 1759 690 2068 
Q 947 2378 1403 2484 
z
M 1172 3481 
Q 1172 3119 1398 2916 
Q 1625 2713 2034 2713 
Q 2441 2713 2670 2916 
Q 2900 3119 2900 3481 
Q 2900 3844 2670 4047 
Q 2441 4250 2034 4250 
Q 1625 4250 1398 4047 
Q 1172 3844 1172 3481 
z
" transform="scale(0.015625)"/>
       </defs>
       <use xlink:href="#DejaVuSans-32"/>
       <use xlink:href="#DejaVuSans-2e" x="63.623047"/>
       <use xlink:href="#DejaVuSans-32" x="95.410156"/>
       <use xlink:href="#DejaVuSans-35" x="159.033203"/>
       <use xlink:href="#DejaVuSans-38" x="222.65625"/>
      </g>
     </g>
    </g>
    <g id="ytick_15">
     <g id="line2d_23">
      <g>
       <use xlink:href="#m810c31ad4b" x="511.875938" y="117.733084" style="stroke: #000000; stroke-width: 0.8"/>
      </g>
     </g>
     <g id="text_24">
      <!-- 2.260 -->
      <g style="fill: #d62728" transform="translate(518.875938 121.532303) scale(0.1 -0.1)">
       <use xlink:href="#DejaVuSans-32"/>
       <use xlink:href="#DejaVuSans-2e" x="63.623047"/>
       <use xlink:href="#DejaVuSans-32" x="95.410156"/>
       <use xlink:href="#DejaVuSans-36" x="159.033203"/>
       <use xlink:href="#DejaVuSans-30" x="222.65625"/>
      </g>
     </g>
    </g>
    <g id="ytick_16">
     <g id="line2d_24">
      <g>
       <use xlink:href="#m810c31ad4b" x="511.875938" y="89.219141" style="stroke: #000000; stroke-width: 0.8"/>
      </g>
     </g>
     <g id="text_25">
      <!-- 2.262 -->
      <g style="fill: #d62728" transform="translate(518.875938 93.01836) scale(0.1 -0.1)">
       <use xlink:href="#DejaVuSans-32"/>
       <use xlink:href="#DejaVuSans-2e" x="63.623047"/>
       <use xlink:href="#DejaVuSans-32" x="95.410156"/>
       <use xlink:href="#DejaVuSans-36" x="159.033203"/>
       <use xlink:href="#DejaVuSans-32" x="222.65625"/>
      </g>
     </g>
    </g>
    <g id="ytick_17">
     <g id="line2d_25">
      <g>
       <use xlink:href="#m810c31ad4b" x="511.875938" y="60.705199" style="stroke: #000000; stroke-width: 0.8"/>
      </g>
     </g>
     <g id="text_26">
      <!-- 2.264 -->
      <g style="fill: #d62728" transform="translate(518.875938 64.504417) scale(0.1 -0.1)">
       <use xlink:href="#DejaVuSans-32"/>
       <use xlink:href="#DejaVuSans-2e" x="63.623047"/>
       <use xlink:href="#DejaVuSans-32" x="95.410156"/>
       <use xlink:href="#DejaVuSans-36" x="159.033203"/>
       <use xlink:href="#DejaVuSans-34" x="222.65625"/>
      </g>
     </g>
    </g>
    <g id="text_27">
     <!-- Dielectric permittivity -->
     <g style="fill: #d62728" transform="translate(559.1025 207.704406) rotate(-90) scale(0.1 -0.1)">
      <defs>
       <path id="DejaVuSans-44" d="M 1259 4147 
L 1259 519 
L 2022 519 
Q 2988 519 3436 956 
Q 3884 1394 3884 2338 
Q 3884 3275 3436 3711 
Q 2988 4147 2022 4147 
L 1259 4147 
z
M 628 4666 
L 1925 4666 
Q 3281 4666 3915 4102 
Q 4550 3538 4550 2338 
Q 4550 1131 3912 565 
Q 3275 0 1925 0 
L 628 0 
L 628 4666 
z
" transform="scale(0.015625)"/>
       <path id="DejaVuSans-70" d="M 1159 525 
L 1159 -1331 
L 581 -1331 
L 581 3500 
L 1159 3500 
L 1159 2969 
Q 1341 3281 1617 3432 
Q 1894 3584 2278 3584 
Q 2916 3584 3314 3078 
Q 3713 2572 3713 1747 
Q 3713 922 3314 415 
Q 2916 -91 2278 -91 
Q 1894 -91 1617 61 
Q 1341 213 1159 525 
z
M 3116 1747 
Q 3116 2381 2855 2742 
Q 2594 3103 2138 3103 
Q 1681 3103 1420 2742 
Q 1159 2381 1159 1747 
Q 1159 1113 1420 752 
Q 1681 391 2138 391 
Q 2594 391 2855 752 
Q 3116 1113 3116 1747 
z
" transform="scale(0.015625)"/>
       <path id="DejaVuSans-76" d="M 191 3500 
L 800 3500 
L 1894 563 
L 2988 3500 
L 3597 3500 
L 2284 0 
L 1503 0 
L 191 3500 
z
" transform="scale(0.015625)"/>
       <path id="DejaVuSans-79" d="M 2059 -325 
Q 1816 -950 1584 -1140 
Q 1353 -1331 966 -1331 
L 506 -1331 
L 506 -850 
L 844 -850 
Q 1081 -850 1212 -737 
Q 1344 -625 1503 -206 
L 1606 56 
L 191 3500 
L 800 3500 
L 1894 763 
L 2988 3500 
L 3597 3500 
L 2059 -325 
z
" transform="scale(0.015625)"/>
      </defs>
      <use xlink:href="#DejaVuSans-44"/>
      <use xlink:href="#DejaVuSans-69" x="77.001953"/>
      <use xlink:href="#DejaVuSans-65" x="104.785156"/>
      <use xlink:href="#DejaVuSans-6c" x="166.308594"/>
      <use xlink:href="#DejaVuSans-65" x="194.091797"/>
      <use xlink:href="#DejaVuSans-63" x="255.615234"/>
      <use xlink:href="#DejaVuSans-74" x="310.595703"/>
      <use xlink:href="#DejaVuSans-72" x="349.804688"/>
      <use xlink:href="#DejaVuSans-69" x="390.917969"/>
      <use xlink:href="#DejaVuSans-63" x="418.701172"/>
      <use xlink:href="#DejaVuSans-20" x="473.681641"/>
      <use xlink:href="#DejaVuSans-70" x="505.46875"/>
      <use xlink:href="#DejaVuSans-65" x="568.945312"/>
      <use xlink:href="#DejaVuSans-72" x="630.46875"/>
      <use xlink:href="#DejaVuSans-6d" x="669.832031"/>
      <use xlink:href="#DejaVuSans-69" x="767.244141"/>
      <use xlink:href="#DejaVuSans-74" x="795.027344"/>
      <use xlink:href="#DejaVuSans-74" x="834.236328"/>
      <use xlink:href="#DejaVuSans-69" x="873.445312"/>
      <use xlink:href="#DejaVuSans-76" x="901.228516"/>
      <use xlink:href="#DejaVuSans-69" x="960.408203"/>
      <use xlink:href="#DejaVuSans-74" x="988.191406"/>
      <use xlink:href="#DejaVuSans-79" x="1027.400391"/>
     </g>
    </g>
   </g>
   <g id="line2d_26">
    <path d="M 85.203665 260.302773 
L 148.188619 260.19764 
L 159.701998 259.953726 
L 167.151831 259.584507 
L 172.569892 259.121165 
L 177.310695 258.509985 
L 181.374241 257.775243 
L 184.760528 256.970385 
L 188.146816 255.948114 
L 191.533104 254.662603 
L 194.242134 253.410173 
L 196.951165 251.927419 
L 199.660195 250.183423 
L 202.369225 248.145635 
L 205.078256 245.78034 
L 207.787286 243.053263 
L 210.496316 239.930314 
L 213.205347 236.37846 
L 215.914377 232.366734 
L 218.623407 227.867353 
L 221.332438 222.856935 
L 224.041468 217.317774 
L 226.750498 211.239147 
L 229.459528 204.61861 
L 232.168559 197.463219 
L 235.554847 187.794847 
L 238.941134 177.379303 
L 243.00468 164.023649 
L 247.745483 147.538902 
L 262.64515 94.866685 
L 266.031438 84.089319 
L 268.740468 76.146453 
L 271.449498 68.93732 
L 273.481271 64.079799 
L 275.513044 59.7418 
L 277.544816 55.962834 
L 279.576589 52.777809 
L 280.931104 50.999351 
L 282.285619 49.505667 
L 283.640134 48.303048 
L 284.99465 47.396583 
L 286.349165 46.790121 
L 287.70368 46.486242 
L 289.058195 46.486242 
L 290.41271 46.790121 
L 291.767225 47.396583 
L 293.121741 48.303048 
L 294.476256 49.505667 
L 295.830771 50.999351 
L 297.185286 52.777809 
L 298.539801 54.833585 
L 300.571574 58.418206 
L 302.603347 62.574035 
L 304.635119 67.263032 
L 306.666892 72.442948 
L 309.375922 80.033512 
L 312.084953 88.298678 
L 315.471241 99.391742 
L 319.534786 113.495852 
L 335.11171 168.568511 
L 339.175256 181.630097 
L 342.561544 191.75588 
L 345.947831 201.106928 
L 348.656862 207.996413 
L 351.365892 214.346255 
L 354.074922 220.154296 
L 356.783953 225.427279 
L 359.492983 230.17958 
L 362.202013 234.431906 
L 364.911044 238.209997 
L 367.620074 241.543373 
L 370.329104 244.464169 
L 373.038134 247.006063 
L 375.747165 249.20334 
L 378.456195 251.090077 
L 381.165225 252.699476 
L 383.874256 254.063321 
L 386.583286 255.211572 
L 389.969574 256.385914 
L 393.355862 257.316049 
L 397.419407 258.170673 
L 401.482953 258.800114 
L 406.223756 259.319755 
L 412.319074 259.747528 
L 419.768907 260.03714 
L 430.605028 260.218609 
L 451.600013 260.295785 
L 491.55821 260.302773 
L 491.55821 260.302773 
" clip-path="url(#p172aa018cb)" style="fill: none; stroke: #d62728; stroke-width: 1.5; stroke-linecap: square"/>
   </g>
   <g id="patch_7">
    <path d="M 64.885938 270.9955 
L 64.885938 35.7555 
" style="fill: none; stroke: #000000; stroke-width: 0.8; stroke-linejoin: miter; stroke-linecap: square"/>
   </g>
   <g id="patch_8">
    <path d="M 511.875938 270.9955 
L 511.875938 35.7555 
" style="fill: none; stroke: #000000; stroke-width: 0.8; stroke-linejoin: miter; stroke-linecap: square"/>
   </g>
   <g id="patch_9">
    <path d="M 64.885938 270.9955 
L 511.875938 270.9955 
" style="fill: none; stroke: #000000; stroke-width: 0.8; stroke-linejoin: miter; stroke-linecap: square"/>
   </g>
   <g id="patch_10">
    <path d="M 64.885938 35.7555 
L 511.875938 35.7555 
" style="fill: none; stroke: #000000; stroke-width: 0.8; stroke-linejoin: miter; stroke-linecap: square"/>
   </g>
   <g id="text_28">
    <!-- Guided mode 9 -->
    <g transform="translate(242.304688 16.318125) scale(0.12 -0.12)">
     <defs>
      <path id="DejaVuSans-47" d="M 3809 666 
L 3809 1919 
L 2778 1919 
L 2778 2438 
L 4434 2438 
L 4434 434 
Q 4069 175 3628 42 
Q 3188 -91 2688 -91 
Q 1594 -91 976 548 
Q 359 1188 359 2328 
Q 359 3472 976 4111 
Q 1594 4750 2688 4750 
Q 3144 4750 3555 4637 
Q 3966 4525 4313 4306 
L 4313 3634 
Q 3963 3931 3569 4081 
Q 3175 4231 2741 4231 
Q 1884 4231 1454 3753 
Q 1025 3275 1025 2328 
Q 1025 1384 1454 906 
Q 1884 428 2741 428 
Q 3075 428 3337 486 
Q 3600 544 3809 666 
z
" transform="scale(0.015625)"/>
      <path id="DejaVuSans-75" d="M 544 1381 
L 544 3500 
L 1119 3500 
L 1119 1403 
Q 1119 906 1312 657 
Q 1506 409 1894 409 
Q 2359 409 2629 706 
Q 2900 1003 2900 1516 
L 2900 3500 
L 3475 3500 
L 3475 0 
L 2900 0 
L 2900 538 
Q 2691 219 2414 64 
Q 2138 -91 1772 -91 
Q 1169 -91 856 284 
Q 544 659 544 1381 
z
M 1991 3584 
L 1991 3584 
z
" transform="scale(0.015625)"/>
      <path id="DejaVuSans-39" d="M 703 97 
L 703 672 
Q 941 559 1184 500 
Q 1428 441 1663 441 
Q 2288 441 2617 861 
Q 2947 1281 2994 2138 
Q 2813 1869 2534 1725 
Q 2256 1581 1919 1581 
Q 1219 1581 811 2004 
Q 403 2428 403 3163 
Q 403 3881 828 4315 
Q 1253 4750 1959 4750 
Q 2769 4750 3195 4129 
Q 3622 3509 3622 2328 
Q 3622 1225 3098 567 
Q 2575 -91 1691 -91 
Q 1453 -91 1209 -44 
Q 966 3 703 97 
z
M 1959 2075 
Q 2384 2075 2632 2365 
Q 2881 2656 2881 3163 
Q 2881 3666 2632 3958 
Q 2384 4250 1959 4250 
Q 1534 4250 1286 3958 
Q 1038 3666 1038 3163 
Q 1038 2656 1286 2365 
Q 1534 2075 1959 2075 
z
" transform="scale(0.015625)"/>
     </defs>
     <use xlink:href="#DejaVuSans-47"/>
     <use xlink:href="#DejaVuSans-75" x="77.490234"/>
     <use xlink:href="#DejaVuSans-69" x="140.869141"/>
     <use xlink:href="#DejaVuSans-64" x="168.652344"/>
     <use xlink:href="#DejaVuSans-65" x="232.128906"/>
     <use xlink:href="#DejaVuSans-64" x="293.652344"/>
     <use xlink:href="#DejaVuSans-20" x="357.128906"/>
     <use xlink:href="#DejaVuSans-6d" x="388.916016"/>
     <use xlink:href="#DejaVuSans-6f" x="486.328125"/>
     <use xlink:href="#DejaVuSans-64" x="547.509766"/>
     <use xlink:href="#DejaVuSans-65" x="610.986328"/>
     <use xlink:href="#DejaVuSans-20" x="672.509766"/>
     <use xlink:href="#DejaVuSans-39" x="704.296875"/>
    </g>
    <!--  effective permittivity: 2.2511129862833728 -->
    <g transform="translate(153.23375 29.7555) scale(0.12 -0.12)">
     <defs>
      <path id="DejaVuSans-3a" d="M 750 794 
L 1409 794 
L 1409 0 
L 750 0 
L 750 794 
z
M 750 3309 
L 1409 3309 
L 1409 2516 
L 750 2516 
L 750 3309 
z
" transform="scale(0.015625)"/>
      <path id="DejaVuSans-33" d="M 2597 2516 
Q 3050 2419 3304 2112 
Q 3559 1806 3559 1356 
Q 3559 666 3084 287 
Q 2609 -91 1734 -91 
Q 1441 -91 1130 -33 
Q 819 25 488 141 
L 488 750 
Q 750 597 1062 519 
Q 1375 441 1716 441 
Q 2309 441 2620 675 
Q 2931 909 2931 1356 
Q 2931 1769 2642 2001 
Q 2353 2234 1838 2234 
L 1294 2234 
L 1294 2753 
L 1863 2753 
Q 2328 2753 2575 2939 
Q 2822 3125 2822 3475 
Q 2822 3834 2567 4026 
Q 2313 4219 1838 4219 
Q 1578 4219 1281 4162 
Q 984 4106 628 3988 
L 628 4550 
Q 988 4650 1302 4700 
Q 1616 4750 1894 4750 
Q 2613 4750 3031 4423 
Q 3450 4097 3450 3541 
Q 3450 3153 3228 2886 
Q 3006 2619 2597 2516 
z
" transform="scale(0.015625)"/>
     </defs>
     <use xlink:href="#DejaVuSans-20"/>
     <use xlink:href="#DejaVuSans-65" x="31.787109"/>
     <use xlink:href="#DejaVuSans-66" x="93.310547"/>
     <use xlink:href="#DejaVuSans-66" x="128.515625"/>
     <use xlink:href="#DejaVuSans-65" x="163.720703"/>
     <use xlink:href="#DejaVuSans-63" x="225.244141"/>
     <use xlink:href="#DejaVuSans-74" x="280.224609"/>
     <use xlink:href="#DejaVuSans-69" x="319.433594"/>
     <use xlink:href="#DejaVuSans-76" x="347.216797"/>
     <use xlink:href="#DejaVuSans-65" x="406.396484"/>
     <use xlink:href="#DejaVuSans-20" x="467.919922"/>
     <use xlink:href="#DejaVuSans-70" x="499.707031"/>
     <use xlink:href="#DejaVuSans-65" x="563.183594"/>
     <use xlink:href="#DejaVuSans-72" x="624.707031"/>
     <use xlink:href="#DejaVuSans-6d" x="664.070312"/>
     <use xlink:href="#DejaVuSans-69" x="761.482422"/>
     <use xlink:href="#DejaVuSans-74" x="789.265625"/>
     <use xlink:href="#DejaVuSans-74" x="828.474609"/>
     <use xlink:href="#DejaVuSans-69" x="867.683594"/>
     <use xlink:href="#DejaVuSans-76" x="895.466797"/>
     <use xlink:href="#DejaVuSans-69" x="954.646484"/>
     <use xlink:href="#DejaVuSans-74" x="982.429688"/>
     <use xlink:href="#DejaVuSans-79" x="1021.638672"/>
     <use xlink:href="#DejaVuSans-3a" x="1073.568359"/>
     <use xlink:href="#DejaVuSans-20" x="1107.259766"/>
     <use xlink:href="#DejaVuSans-32" x="1139.046875"/>
     <use xlink:href="#DejaVuSans-2e" x="1202.669922"/>
     <use xlink:href="#DejaVuSans-32" x="1234.457031"/>
     <use xlink:href="#DejaVuSans-35" x="1298.080078"/>
     <use xlink:href="#DejaVuSans-31" x="1361.703125"/>
     <use xlink:href="#DejaVuSans-31" x="1425.326172"/>
     <use xlink:href="#DejaVuSans-31" x="1488.949219"/>
     <use xlink:href="#DejaVuSans-32" x="1552.572266"/>
     <use xlink:href="#DejaVuSans-39" x="1616.195312"/>
     <use xlink:href="#DejaVuSans-38" x="1679.818359"/>
     <use xlink:href="#DejaVuSans-36" x="1743.441406"/>
     <use xlink:href="#DejaVuSans-32" x="1807.064453"/>
     <use xlink:href="#DejaVuSans-38" x="1870.6875"/>
     <use xlink:href="#DejaVuSans-33" x="1934.310547"/>
     <use xlink:href="#DejaVuSans-33" x="1997.933594"/>
     <use xlink:href="#DejaVuSans-37" x="2061.556641"/>
     <use xlink:href="#DejaVuSans-32" x="2125.179688"/>
     <use xlink:href="#DejaVuSans-38" x="2188.802734"/>
    </g>
   </g>
  </g>
 </g>
 <defs>
  <clipPath id="p172aa018cb">
   <rect x="64.885938" y="35.7555" width="446.99" height="235.24"/>
  </clipPath>
 </defs>
</svg>
