<?xml version="1.0" encoding="utf-8" standalone="no"?>
<!DOCTYPE svg PUBLIC "-//W3C//DTD SVG 1.1//EN"
  "http://www.w3.org/Graphics/SVG/1.1/DTD/svg11.dtd">
<svg xmlns:xlink="http://www.w3.org/1999/xlink" width="568.319687pt" height="308.55175pt" viewBox="0 0 568.319687 308.55175" xmlns="http://www.w3.org/2000/svg" version="1.1">
 <metadata>
  <rdf:RDF xmlns:dc="http://purl.org/dc/elements/1.1/" xmlns:cc="http://creativecommons.org/ns#" xmlns:rdf="http://www.w3.org/1999/02/22-rdf-syntax-ns#">
   <cc:Work>
    <dc:type rdf:resource="http://purl.org/dc/dcmitype/StillImage"/>
    <dc:date>2024-05-14T14:10:55.372535</dc:date>
    <dc:format>image/svg+xml</dc:format>
    <dc:creator>
     <cc:Agent>
      <dc:title>Matplotlib v3.8.4, https://matplotlib.org/</dc:title>
     </cc:Agent>
    </dc:creator>
   </cc:Work>
  </rdf:RDF>
 </metadata>
 <defs>
  <style type="text/css">*{stroke-linejoin: round; stroke-linecap: butt}</style>
 </defs>
 <g id="figure_1">
  <g id="patch_1">
   <path d="M 0 308.55175 
L 568.319687 308.55175 
L 568.319687 0 
L 0 0 
z
" style="fill: #ffffff"/>
  </g>
  <g id="axes_1">
   <g id="patch_2">
    <path d="M 58.523438 270.9955 
L 511.813438 270.9955 
L 511.813438 35.7555 
L 58.523438 35.7555 
z
" style="fill: #ffffff"/>
   </g>
   <g id="matplotlib.axis_1">
    <g id="xtick_1">
     <g id="line2d_1">
      <defs>
       <path id="maae4d59cd0" d="M 0 0 
L 0 3.5 
" style="stroke: #000000; stroke-width: 0.8"/>
      </defs>
      <g>
       <use xlink:href="#maae4d59cd0" x="79.127528" y="270.9955" style="stroke: #000000; stroke-width: 0.8"/>
      </g>
     </g>
     <g id="text_1">
      <!-- −60 -->
      <g transform="translate(68.575185 285.593937) scale(0.1 -0.1)">
       <defs>
        <path id="DejaVuSans-2212" d="M 678 2272 
L 4684 2272 
L 4684 1741 
L 678 1741 
L 678 2272 
z
" transform="scale(0.015625)"/>
        <path id="DejaVuSans-36" d="M 2113 2584 
Q 1688 2584 1439 2293 
Q 1191 2003 1191 1497 
Q 1191 994 1439 701 
Q 1688 409 2113 409 
Q 2538 409 2786 701 
Q 3034 994 3034 1497 
Q 3034 2003 2786 2293 
Q 2538 2584 2113 2584 
z
M 3366 4563 
L 3366 3988 
Q 3128 4100 2886 4159 
Q 2644 4219 2406 4219 
Q 1781 4219 1451 3797 
Q 1122 3375 1075 2522 
Q 1259 2794 1537 2939 
Q 1816 3084 2150 3084 
Q 2853 3084 3261 2657 
Q 3669 2231 3669 1497 
Q 3669 778 3244 343 
Q 2819 -91 2113 -91 
Q 1303 -91 875 529 
Q 447 1150 447 2328 
Q 447 3434 972 4092 
Q 1497 4750 2381 4750 
Q 2619 4750 2861 4703 
Q 3103 4656 3366 4563 
z
" transform="scale(0.015625)"/>
        <path id="DejaVuSans-30" d="M 2034 4250 
Q 1547 4250 1301 3770 
Q 1056 3291 1056 2328 
Q 1056 1369 1301 889 
Q 1547 409 2034 409 
Q 2525 409 2770 889 
Q 3016 1369 3016 2328 
Q 3016 3291 2770 3770 
Q 2525 4250 2034 4250 
z
M 2034 4750 
Q 2819 4750 3233 4129 
Q 3647 3509 3647 2328 
Q 3647 1150 3233 529 
Q 2819 -91 2034 -91 
Q 1250 -91 836 529 
Q 422 1150 422 2328 
Q 422 3509 836 4129 
Q 1250 4750 2034 4750 
z
" transform="scale(0.015625)"/>
       </defs>
       <use xlink:href="#DejaVuSans-2212"/>
       <use xlink:href="#DejaVuSans-36" x="83.789062"/>
       <use xlink:href="#DejaVuSans-30" x="147.412109"/>
      </g>
     </g>
    </g>
    <g id="xtick_2">
     <g id="line2d_2">
      <g>
       <use xlink:href="#maae4d59cd0" x="147.807831" y="270.9955" style="stroke: #000000; stroke-width: 0.8"/>
      </g>
     </g>
     <g id="text_2">
      <!-- −40 -->
      <g transform="translate(137.255488 285.593937) scale(0.1 -0.1)">
       <defs>
        <path id="DejaVuSans-34" d="M 2419 4116 
L 825 1625 
L 2419 1625 
L 2419 4116 
z
M 2253 4666 
L 3047 4666 
L 3047 1625 
L 3713 1625 
L 3713 1100 
L 3047 1100 
L 3047 0 
L 2419 0 
L 2419 1100 
L 313 1100 
L 313 1709 
L 2253 4666 
z
" transform="scale(0.015625)"/>
       </defs>
       <use xlink:href="#DejaVuSans-2212"/>
       <use xlink:href="#DejaVuSans-34" x="83.789062"/>
       <use xlink:href="#DejaVuSans-30" x="147.412109"/>
      </g>
     </g>
    </g>
    <g id="xtick_3">
     <g id="line2d_3">
      <g>
       <use xlink:href="#maae4d59cd0" x="216.488134" y="270.9955" style="stroke: #000000; stroke-width: 0.8"/>
      </g>
     </g>
     <g id="text_3">
      <!-- −20 -->
      <g transform="translate(205.935791 285.593937) scale(0.1 -0.1)">
       <defs>
        <path id="DejaVuSans-32" d="M 1228 531 
L 3431 531 
L 3431 0 
L 469 0 
L 469 531 
Q 828 903 1448 1529 
Q 2069 2156 2228 2338 
Q 2531 2678 2651 2914 
Q 2772 3150 2772 3378 
Q 2772 3750 2511 3984 
Q 2250 4219 1831 4219 
Q 1534 4219 1204 4116 
Q 875 4013 500 3803 
L 500 4441 
Q 881 4594 1212 4672 
Q 1544 4750 1819 4750 
Q 2544 4750 2975 4387 
Q 3406 4025 3406 3419 
Q 3406 3131 3298 2873 
Q 3191 2616 2906 2266 
Q 2828 2175 2409 1742 
Q 1991 1309 1228 531 
z
" transform="scale(0.015625)"/>
       </defs>
       <use xlink:href="#DejaVuSans-2212"/>
       <use xlink:href="#DejaVuSans-32" x="83.789062"/>
       <use xlink:href="#DejaVuSans-30" x="147.412109"/>
      </g>
     </g>
    </g>
    <g id="xtick_4">
     <g id="line2d_4">
      <g>
       <use xlink:href="#maae4d59cd0" x="285.168438" y="270.9955" style="stroke: #000000; stroke-width: 0.8"/>
      </g>
     </g>
     <g id="text_4">
      <!-- 0 -->
      <g transform="translate(281.987188 285.593937) scale(0.1 -0.1)">
       <use xlink:href="#DejaVuSans-30"/>
      </g>
     </g>
    </g>
    <g id="xtick_5">
     <g id="line2d_5">
      <g>
       <use xlink:href="#maae4d59cd0" x="353.848741" y="270.9955" style="stroke: #000000; stroke-width: 0.8"/>
      </g>
     </g>
     <g id="text_5">
      <!-- 20 -->
      <g transform="translate(347.486241 285.593937) scale(0.1 -0.1)">
       <use xlink:href="#DejaVuSans-32"/>
       <use xlink:href="#DejaVuSans-30" x="63.623047"/>
      </g>
     </g>
    </g>
    <g id="xtick_6">
     <g id="line2d_6">
      <g>
       <use xlink:href="#maae4d59cd0" x="422.529044" y="270.9955" style="stroke: #000000; stroke-width: 0.8"/>
      </g>
     </g>
     <g id="text_6">
      <!-- 40 -->
      <g transform="translate(416.166544 285.593937) scale(0.1 -0.1)">
       <use xlink:href="#DejaVuSans-34"/>
       <use xlink:href="#DejaVuSans-30" x="63.623047"/>
      </g>
     </g>
    </g>
    <g id="xtick_7">
     <g id="line2d_7">
      <g>
       <use xlink:href="#maae4d59cd0" x="491.209347" y="270.9955" style="stroke: #000000; stroke-width: 0.8"/>
      </g>
     </g>
     <g id="text_7">
      <!-- 60 -->
      <g transform="translate(484.846847 285.593937) scale(0.1 -0.1)">
       <use xlink:href="#DejaVuSans-36"/>
       <use xlink:href="#DejaVuSans-30" x="63.623047"/>
      </g>
     </g>
    </g>
    <g id="text_8">
     <!-- Position [µm] -->
     <g transform="translate(252.162188 299.272062) scale(0.1 -0.1)">
      <defs>
       <path id="DejaVuSans-50" d="M 1259 4147 
L 1259 2394 
L 2053 2394 
Q 2494 2394 2734 2622 
Q 2975 2850 2975 3272 
Q 2975 3691 2734 3919 
Q 2494 4147 2053 4147 
L 1259 4147 
z
M 628 4666 
L 2053 4666 
Q 2838 4666 3239 4311 
Q 3641 3956 3641 3272 
Q 3641 2581 3239 2228 
Q 2838 1875 2053 1875 
L 1259 1875 
L 1259 0 
L 628 0 
L 628 4666 
z
" transform="scale(0.015625)"/>
       <path id="DejaVuSans-6f" d="M 1959 3097 
Q 1497 3097 1228 2736 
Q 959 2375 959 1747 
Q 959 1119 1226 758 
Q 1494 397 1959 397 
Q 2419 397 2687 759 
Q 2956 1122 2956 1747 
Q 2956 2369 2687 2733 
Q 2419 3097 1959 3097 
z
M 1959 3584 
Q 2709 3584 3137 3096 
Q 3566 2609 3566 1747 
Q 3566 888 3137 398 
Q 2709 -91 1959 -91 
Q 1206 -91 779 398 
Q 353 888 353 1747 
Q 353 2609 779 3096 
Q 1206 3584 1959 3584 
z
" transform="scale(0.015625)"/>
       <path id="DejaVuSans-73" d="M 2834 3397 
L 2834 2853 
Q 2591 2978 2328 3040 
Q 2066 3103 1784 3103 
Q 1356 3103 1142 2972 
Q 928 2841 928 2578 
Q 928 2378 1081 2264 
Q 1234 2150 1697 2047 
L 1894 2003 
Q 2506 1872 2764 1633 
Q 3022 1394 3022 966 
Q 3022 478 2636 193 
Q 2250 -91 1575 -91 
Q 1294 -91 989 -36 
Q 684 19 347 128 
L 347 722 
Q 666 556 975 473 
Q 1284 391 1588 391 
Q 1994 391 2212 530 
Q 2431 669 2431 922 
Q 2431 1156 2273 1281 
Q 2116 1406 1581 1522 
L 1381 1569 
Q 847 1681 609 1914 
Q 372 2147 372 2553 
Q 372 3047 722 3315 
Q 1072 3584 1716 3584 
Q 2034 3584 2315 3537 
Q 2597 3491 2834 3397 
z
" transform="scale(0.015625)"/>
       <path id="DejaVuSans-69" d="M 603 3500 
L 1178 3500 
L 1178 0 
L 603 0 
L 603 3500 
z
M 603 4863 
L 1178 4863 
L 1178 4134 
L 603 4134 
L 603 4863 
z
" transform="scale(0.015625)"/>
       <path id="DejaVuSans-74" d="M 1172 4494 
L 1172 3500 
L 2356 3500 
L 2356 3053 
L 1172 3053 
L 1172 1153 
Q 1172 725 1289 603 
Q 1406 481 1766 481 
L 2356 481 
L 2356 0 
L 1766 0 
Q 1100 0 847 248 
Q 594 497 594 1153 
L 594 3053 
L 172 3053 
L 172 3500 
L 594 3500 
L 594 4494 
L 1172 4494 
z
" transform="scale(0.015625)"/>
       <path id="DejaVuSans-6e" d="M 3513 2113 
L 3513 0 
L 2938 0 
L 2938 2094 
Q 2938 2591 2744 2837 
Q 2550 3084 2163 3084 
Q 1697 3084 1428 2787 
Q 1159 2491 1159 1978 
L 1159 0 
L 581 0 
L 581 3500 
L 1159 3500 
L 1159 2956 
Q 1366 3272 1645 3428 
Q 1925 3584 2291 3584 
Q 2894 3584 3203 3211 
Q 3513 2838 3513 2113 
z
" transform="scale(0.015625)"/>
       <path id="DejaVuSans-20" transform="scale(0.015625)"/>
       <path id="DejaVuSans-5b" d="M 550 4863 
L 1875 4863 
L 1875 4416 
L 1125 4416 
L 1125 -397 
L 1875 -397 
L 1875 -844 
L 550 -844 
L 550 4863 
z
" transform="scale(0.015625)"/>
       <path id="DejaVuSans-b5" d="M 544 -1331 
L 544 3500 
L 1119 3500 
L 1119 1325 
Q 1119 872 1334 640 
Q 1550 409 1972 409 
Q 2434 409 2667 671 
Q 2900 934 2900 1459 
L 2900 3500 
L 3475 3500 
L 3475 806 
Q 3475 619 3529 530 
Q 3584 441 3700 441 
Q 3728 441 3778 458 
Q 3828 475 3916 513 
L 3916 50 
Q 3788 -22 3673 -56 
Q 3559 -91 3450 -91 
Q 3234 -91 3106 31 
Q 2978 153 2931 403 
Q 2775 156 2548 32 
Q 2322 -91 2016 -91 
Q 1697 -91 1473 31 
Q 1250 153 1119 397 
L 1119 -1331 
L 544 -1331 
z
" transform="scale(0.015625)"/>
       <path id="DejaVuSans-6d" d="M 3328 2828 
Q 3544 3216 3844 3400 
Q 4144 3584 4550 3584 
Q 5097 3584 5394 3201 
Q 5691 2819 5691 2113 
L 5691 0 
L 5113 0 
L 5113 2094 
Q 5113 2597 4934 2840 
Q 4756 3084 4391 3084 
Q 3944 3084 3684 2787 
Q 3425 2491 3425 1978 
L 3425 0 
L 2847 0 
L 2847 2094 
Q 2847 2600 2669 2842 
Q 2491 3084 2119 3084 
Q 1678 3084 1418 2786 
Q 1159 2488 1159 1978 
L 1159 0 
L 581 0 
L 581 3500 
L 1159 3500 
L 1159 2956 
Q 1356 3278 1631 3431 
Q 1906 3584 2284 3584 
Q 2666 3584 2933 3390 
Q 3200 3197 3328 2828 
z
" transform="scale(0.015625)"/>
       <path id="DejaVuSans-5d" d="M 1947 4863 
L 1947 -844 
L 622 -844 
L 622 -397 
L 1369 -397 
L 1369 4416 
L 622 4416 
L 622 4863 
L 1947 4863 
z
" transform="scale(0.015625)"/>
      </defs>
      <use xlink:href="#DejaVuSans-50"/>
      <use xlink:href="#DejaVuSans-6f" x="56.677734"/>
      <use xlink:href="#DejaVuSans-73" x="117.859375"/>
      <use xlink:href="#DejaVuSans-69" x="169.958984"/>
      <use xlink:href="#DejaVuSans-74" x="197.742188"/>
      <use xlink:href="#DejaVuSans-69" x="236.951172"/>
      <use xlink:href="#DejaVuSans-6f" x="264.734375"/>
      <use xlink:href="#DejaVuSans-6e" x="325.916016"/>
      <use xlink:href="#DejaVuSans-20" x="389.294922"/>
      <use xlink:href="#DejaVuSans-5b" x="421.082031"/>
      <use xlink:href="#DejaVuSans-b5" x="460.095703"/>
      <use xlink:href="#DejaVuSans-6d" x="523.71875"/>
      <use xlink:href="#DejaVuSans-5d" x="621.130859"/>
     </g>
    </g>
   </g>
   <g id="matplotlib.axis_2">
    <g id="ytick_1">
     <g id="line2d_8">
      <defs>
       <path id="mbf2f9f229b" d="M 0 0 
L -3.5 0 
" style="stroke: #000000; stroke-width: 0.8"/>
      </defs>
      <g>
       <use xlink:href="#mbf2f9f229b" x="58.523438" y="244.037071" style="stroke: #000000; stroke-width: 0.8"/>
      </g>
     </g>
     <g id="text_9">
      <!-- −0.10 -->
      <g style="fill: #1f77b4" transform="translate(20.878125 247.83629) scale(0.1 -0.1)">
       <defs>
        <path id="DejaVuSans-2e" d="M 684 794 
L 1344 794 
L 1344 0 
L 684 0 
L 684 794 
z
" transform="scale(0.015625)"/>
        <path id="DejaVuSans-31" d="M 794 531 
L 1825 531 
L 1825 4091 
L 703 3866 
L 703 4441 
L 1819 4666 
L 2450 4666 
L 2450 531 
L 3481 531 
L 3481 0 
L 794 0 
L 794 531 
z
" transform="scale(0.015625)"/>
       </defs>
       <use xlink:href="#DejaVuSans-2212"/>
       <use xlink:href="#DejaVuSans-30" x="83.789062"/>
       <use xlink:href="#DejaVuSans-2e" x="147.412109"/>
       <use xlink:href="#DejaVuSans-31" x="179.199219"/>
       <use xlink:href="#DejaVuSans-30" x="242.822266"/>
      </g>
     </g>
    </g>
    <g id="ytick_2">
     <g id="line2d_9">
      <g>
       <use xlink:href="#mbf2f9f229b" x="58.523438" y="198.706286" style="stroke: #000000; stroke-width: 0.8"/>
      </g>
     </g>
     <g id="text_10">
      <!-- −0.05 -->
      <g style="fill: #1f77b4" transform="translate(20.878125 202.505504) scale(0.1 -0.1)">
       <defs>
        <path id="DejaVuSans-35" d="M 691 4666 
L 3169 4666 
L 3169 4134 
L 1269 4134 
L 1269 2991 
Q 1406 3038 1543 3061 
Q 1681 3084 1819 3084 
Q 2600 3084 3056 2656 
Q 3513 2228 3513 1497 
Q 3513 744 3044 326 
Q 2575 -91 1722 -91 
Q 1428 -91 1123 -41 
Q 819 9 494 109 
L 494 744 
Q 775 591 1075 516 
Q 1375 441 1709 441 
Q 2250 441 2565 725 
Q 2881 1009 2881 1497 
Q 2881 1984 2565 2268 
Q 2250 2553 1709 2553 
Q 1456 2553 1204 2497 
Q 953 2441 691 2322 
L 691 4666 
z
" transform="scale(0.015625)"/>
       </defs>
       <use xlink:href="#DejaVuSans-2212"/>
       <use xlink:href="#DejaVuSans-30" x="83.789062"/>
       <use xlink:href="#DejaVuSans-2e" x="147.412109"/>
       <use xlink:href="#DejaVuSans-30" x="179.199219"/>
       <use xlink:href="#DejaVuSans-35" x="242.822266"/>
      </g>
     </g>
    </g>
    <g id="ytick_3">
     <g id="line2d_10">
      <g>
       <use xlink:href="#mbf2f9f229b" x="58.523438" y="153.3755" style="stroke: #000000; stroke-width: 0.8"/>
      </g>
     </g>
     <g id="text_11">
      <!-- 0.00 -->
      <g style="fill: #1f77b4" transform="translate(29.257813 157.174719) scale(0.1 -0.1)">
       <use xlink:href="#DejaVuSans-30"/>
       <use xlink:href="#DejaVuSans-2e" x="63.623047"/>
       <use xlink:href="#DejaVuSans-30" x="95.410156"/>
       <use xlink:href="#DejaVuSans-30" x="159.033203"/>
      </g>
     </g>
    </g>
    <g id="ytick_4">
     <g id="line2d_11">
      <g>
       <use xlink:href="#mbf2f9f229b" x="58.523438" y="108.044714" style="stroke: #000000; stroke-width: 0.8"/>
      </g>
     </g>
     <g id="text_12">
      <!-- 0.05 -->
      <g style="fill: #1f77b4" transform="translate(29.257813 111.843933) scale(0.1 -0.1)">
       <use xlink:href="#DejaVuSans-30"/>
       <use xlink:href="#DejaVuSans-2e" x="63.623047"/>
       <use xlink:href="#DejaVuSans-30" x="95.410156"/>
       <use xlink:href="#DejaVuSans-35" x="159.033203"/>
      </g>
     </g>
    </g>
    <g id="ytick_5">
     <g id="line2d_12">
      <g>
       <use xlink:href="#mbf2f9f229b" x="58.523438" y="62.713929" style="stroke: #000000; stroke-width: 0.8"/>
      </g>
     </g>
     <g id="text_13">
      <!-- 0.10 -->
      <g style="fill: #1f77b4" transform="translate(29.257813 66.513148) scale(0.1 -0.1)">
       <use xlink:href="#DejaVuSans-30"/>
       <use xlink:href="#DejaVuSans-2e" x="63.623047"/>
       <use xlink:href="#DejaVuSans-31" x="95.410156"/>
       <use xlink:href="#DejaVuSans-30" x="159.033203"/>
      </g>
     </g>
    </g>
    <g id="text_14">
     <!-- Electric field strength [V/µm] -->
     <g style="fill: #1f77b4" transform="translate(14.798438 225.573937) rotate(-90) scale(0.1 -0.1)">
      <defs>
       <path id="DejaVuSans-45" d="M 628 4666 
L 3578 4666 
L 3578 4134 
L 1259 4134 
L 1259 2753 
L 3481 2753 
L 3481 2222 
L 1259 2222 
L 1259 531 
L 3634 531 
L 3634 0 
L 628 0 
L 628 4666 
z
" transform="scale(0.015625)"/>
       <path id="DejaVuSans-6c" d="M 603 4863 
L 1178 4863 
L 1178 0 
L 603 0 
L 603 4863 
z
" transform="scale(0.015625)"/>
       <path id="DejaVuSans-65" d="M 3597 1894 
L 3597 1613 
L 953 1613 
Q 991 1019 1311 708 
Q 1631 397 2203 397 
Q 2534 397 2845 478 
Q 3156 559 3463 722 
L 3463 178 
Q 3153 47 2828 -22 
Q 2503 -91 2169 -91 
Q 1331 -91 842 396 
Q 353 884 353 1716 
Q 353 2575 817 3079 
Q 1281 3584 2069 3584 
Q 2775 3584 3186 3129 
Q 3597 2675 3597 1894 
z
M 3022 2063 
Q 3016 2534 2758 2815 
Q 2500 3097 2075 3097 
Q 1594 3097 1305 2825 
Q 1016 2553 972 2059 
L 3022 2063 
z
" transform="scale(0.015625)"/>
       <path id="DejaVuSans-63" d="M 3122 3366 
L 3122 2828 
Q 2878 2963 2633 3030 
Q 2388 3097 2138 3097 
Q 1578 3097 1268 2742 
Q 959 2388 959 1747 
Q 959 1106 1268 751 
Q 1578 397 2138 397 
Q 2388 397 2633 464 
Q 2878 531 3122 666 
L 3122 134 
Q 2881 22 2623 -34 
Q 2366 -91 2075 -91 
Q 1284 -91 818 406 
Q 353 903 353 1747 
Q 353 2603 823 3093 
Q 1294 3584 2113 3584 
Q 2378 3584 2631 3529 
Q 2884 3475 3122 3366 
z
" transform="scale(0.015625)"/>
       <path id="DejaVuSans-72" d="M 2631 2963 
Q 2534 3019 2420 3045 
Q 2306 3072 2169 3072 
Q 1681 3072 1420 2755 
Q 1159 2438 1159 1844 
L 1159 0 
L 581 0 
L 581 3500 
L 1159 3500 
L 1159 2956 
Q 1341 3275 1631 3429 
Q 1922 3584 2338 3584 
Q 2397 3584 2469 3576 
Q 2541 3569 2628 3553 
L 2631 2963 
z
" transform="scale(0.015625)"/>
       <path id="DejaVuSans-66" d="M 2375 4863 
L 2375 4384 
L 1825 4384 
Q 1516 4384 1395 4259 
Q 1275 4134 1275 3809 
L 1275 3500 
L 2222 3500 
L 2222 3053 
L 1275 3053 
L 1275 0 
L 697 0 
L 697 3053 
L 147 3053 
L 147 3500 
L 697 3500 
L 697 3744 
Q 697 4328 969 4595 
Q 1241 4863 1831 4863 
L 2375 4863 
z
" transform="scale(0.015625)"/>
       <path id="DejaVuSans-64" d="M 2906 2969 
L 2906 4863 
L 3481 4863 
L 3481 0 
L 2906 0 
L 2906 525 
Q 2725 213 2448 61 
Q 2172 -91 1784 -91 
Q 1150 -91 751 415 
Q 353 922 353 1747 
Q 353 2572 751 3078 
Q 1150 3584 1784 3584 
Q 2172 3584 2448 3432 
Q 2725 3281 2906 2969 
z
M 947 1747 
Q 947 1113 1208 752 
Q 1469 391 1925 391 
Q 2381 391 2643 752 
Q 2906 1113 2906 1747 
Q 2906 2381 2643 2742 
Q 2381 3103 1925 3103 
Q 1469 3103 1208 2742 
Q 947 2381 947 1747 
z
" transform="scale(0.015625)"/>
       <path id="DejaVuSans-67" d="M 2906 1791 
Q 2906 2416 2648 2759 
Q 2391 3103 1925 3103 
Q 1463 3103 1205 2759 
Q 947 2416 947 1791 
Q 947 1169 1205 825 
Q 1463 481 1925 481 
Q 2391 481 2648 825 
Q 2906 1169 2906 1791 
z
M 3481 434 
Q 3481 -459 3084 -895 
Q 2688 -1331 1869 -1331 
Q 1566 -1331 1297 -1286 
Q 1028 -1241 775 -1147 
L 775 -588 
Q 1028 -725 1275 -790 
Q 1522 -856 1778 -856 
Q 2344 -856 2625 -561 
Q 2906 -266 2906 331 
L 2906 616 
Q 2728 306 2450 153 
Q 2172 0 1784 0 
Q 1141 0 747 490 
Q 353 981 353 1791 
Q 353 2603 747 3093 
Q 1141 3584 1784 3584 
Q 2172 3584 2450 3431 
Q 2728 3278 2906 2969 
L 2906 3500 
L 3481 3500 
L 3481 434 
z
" transform="scale(0.015625)"/>
       <path id="DejaVuSans-68" d="M 3513 2113 
L 3513 0 
L 2938 0 
L 2938 2094 
Q 2938 2591 2744 2837 
Q 2550 3084 2163 3084 
Q 1697 3084 1428 2787 
Q 1159 2491 1159 1978 
L 1159 0 
L 581 0 
L 581 4863 
L 1159 4863 
L 1159 2956 
Q 1366 3272 1645 3428 
Q 1925 3584 2291 3584 
Q 2894 3584 3203 3211 
Q 3513 2838 3513 2113 
z
" transform="scale(0.015625)"/>
       <path id="DejaVuSans-56" d="M 1831 0 
L 50 4666 
L 709 4666 
L 2188 738 
L 3669 4666 
L 4325 4666 
L 2547 0 
L 1831 0 
z
" transform="scale(0.015625)"/>
       <path id="DejaVuSans-2f" d="M 1625 4666 
L 2156 4666 
L 531 -594 
L 0 -594 
L 1625 4666 
z
" transform="scale(0.015625)"/>
      </defs>
      <use xlink:href="#DejaVuSans-45"/>
      <use xlink:href="#DejaVuSans-6c" x="63.183594"/>
      <use xlink:href="#DejaVuSans-65" x="90.966797"/>
      <use xlink:href="#DejaVuSans-63" x="152.490234"/>
      <use xlink:href="#DejaVuSans-74" x="207.470703"/>
      <use xlink:href="#DejaVuSans-72" x="246.679688"/>
      <use xlink:href="#DejaVuSans-69" x="287.792969"/>
      <use xlink:href="#DejaVuSans-63" x="315.576172"/>
      <use xlink:href="#DejaVuSans-20" x="370.556641"/>
      <use xlink:href="#DejaVuSans-66" x="402.34375"/>
      <use xlink:href="#DejaVuSans-69" x="437.548828"/>
      <use xlink:href="#DejaVuSans-65" x="465.332031"/>
      <use xlink:href="#DejaVuSans-6c" x="526.855469"/>
      <use xlink:href="#DejaVuSans-64" x="554.638672"/>
      <use xlink:href="#DejaVuSans-20" x="618.115234"/>
      <use xlink:href="#DejaVuSans-73" x="649.902344"/>
      <use xlink:href="#DejaVuSans-74" x="702.001953"/>
      <use xlink:href="#DejaVuSans-72" x="741.210938"/>
      <use xlink:href="#DejaVuSans-65" x="780.074219"/>
      <use xlink:href="#DejaVuSans-6e" x="841.597656"/>
      <use xlink:href="#DejaVuSans-67" x="904.976562"/>
      <use xlink:href="#DejaVuSans-74" x="968.453125"/>
      <use xlink:href="#DejaVuSans-68" x="1007.662109"/>
      <use xlink:href="#DejaVuSans-20" x="1071.041016"/>
      <use xlink:href="#DejaVuSans-5b" x="1102.828125"/>
      <use xlink:href="#DejaVuSans-56" x="1141.841797"/>
      <use xlink:href="#DejaVuSans-2f" x="1210.25"/>
      <use xlink:href="#DejaVuSans-b5" x="1243.941406"/>
      <use xlink:href="#DejaVuSans-6d" x="1307.564453"/>
      <use xlink:href="#DejaVuSans-5d" x="1404.976562"/>
     </g>
    </g>
   </g>
   <g id="line2d_13">
    <path d="M 79.127528 153.3755 
L 186.955604 153.478796 
L 193.823634 153.702114 
L 197.944453 154.018502 
L 201.378468 154.494715 
L 204.12568 155.10497 
L 206.186089 155.759097 
L 208.246498 156.642779 
L 210.306907 157.826832 
L 211.680513 158.825562 
L 213.054119 160.026669 
L 214.427725 161.464099 
L 215.801331 163.175236 
L 217.174938 165.200481 
L 218.548544 167.582514 
L 219.92215 170.365125 
L 221.295756 173.591544 
L 222.669362 177.302153 
L 224.042968 181.53152 
L 225.416574 186.304676 
L 227.476983 194.50299 
L 229.537392 203.894886 
L 232.284604 217.913938 
L 237.092225 243.238811 
L 238.465831 249.467859 
L 239.839438 254.636441 
L 240.526241 256.700711 
L 241.213044 258.350478 
L 241.899847 259.534386 
L 242.58665 260.201617 
L 243.273453 260.302773 
L 243.960256 259.790848 
L 244.647059 258.622286 
L 245.333862 256.758101 
L 246.020665 254.165053 
L 246.707468 250.816854 
L 247.394271 246.695385 
L 248.767877 236.108118 
L 250.141483 222.465567 
L 251.515089 206.02899 
L 253.575498 177.25082 
L 258.383119 106.285767 
L 259.756725 90.188041 
L 260.443528 83.598479 
L 261.130331 78.164616 
L 261.817134 74.00599 
L 262.503938 71.223791 
L 263.190741 69.897471 
L 263.877544 70.081662 
L 264.564347 71.803475 
L 265.25115 75.060316 
L 265.937953 79.818293 
L 266.624756 86.011323 
L 267.998362 102.277297 
L 269.371968 122.701652 
L 274.179589 201.516721 
L 275.553195 217.895584 
L 276.239998 223.928758 
L 276.926801 228.309416 
L 277.613604 230.92234 
L 278.300407 231.693834 
L 278.98721 230.594414 
L 279.674013 227.640352 
L 280.360816 222.893973 
L 281.047619 216.462679 
L 281.734422 208.496712 
L 283.108028 188.753948 
L 285.168438 153.3755 
L 287.228847 117.997052 
L 288.602453 98.254288 
L 289.289256 90.288321 
L 289.976059 83.857027 
L 290.662862 79.110648 
L 291.349665 76.156586 
L 292.036468 75.057166 
L 292.723271 75.82866 
L 293.410074 78.441584 
L 294.096877 82.822242 
L 294.78368 88.855416 
L 295.470483 96.388125 
L 296.844089 115.180094 
L 298.904498 149.190281 
L 300.964907 184.049348 
L 302.338513 204.473703 
L 303.712119 220.739677 
L 304.398922 226.932707 
L 305.085725 231.690684 
L 305.772528 234.947525 
L 306.459331 236.669338 
L 307.146134 236.853529 
L 307.832938 235.527209 
L 308.519741 232.74501 
L 309.206544 228.586384 
L 309.893347 223.152521 
L 311.266953 208.952032 
L 312.640559 191.255592 
L 314.700968 160.86076 
L 318.134983 109.846483 
L 319.508589 92.179242 
L 320.882195 77.093601 
L 322.255801 64.959111 
L 323.629407 55.934146 
L 324.31621 52.585947 
L 325.003013 49.992899 
L 325.689816 48.128714 
L 326.376619 46.960152 
L 327.063422 46.448227 
L 327.750225 46.549383 
L 328.437028 47.216614 
L 329.123831 48.400522 
L 329.810634 50.050289 
L 330.497438 52.114559 
L 331.871044 57.283141 
L 333.24465 63.512189 
L 335.305059 74.062897 
L 340.11268 99.488584 
L 342.173089 109.243858 
L 344.233498 117.851698 
L 346.293907 125.21948 
L 347.667513 129.448847 
L 349.041119 133.159456 
L 350.414725 136.385875 
L 351.788331 139.168486 
L 353.161938 141.550519 
L 354.535544 143.575764 
L 355.90915 145.286901 
L 357.282756 146.724331 
L 358.656362 147.925438 
L 360.716771 149.357268 
L 362.77718 150.432333 
L 364.837589 151.232399 
L 366.897998 151.82314 
L 369.64521 152.372865 
L 373.079225 152.800651 
L 377.200044 153.084074 
L 383.381271 153.272204 
L 395.056922 153.361472 
L 449.314362 153.375499 
L 491.209347 153.3755 
L 491.209347 153.3755 
" clip-path="url(#p001440107f)" style="fill: none; stroke: #1f77b4; stroke-width: 1.5; stroke-linecap: square"/>
   </g>
   <g id="patch_3">
    <path d="M 58.523438 270.9955 
L 58.523438 35.7555 
" style="fill: none; stroke: #000000; stroke-width: 0.8; stroke-linejoin: miter; stroke-linecap: square"/>
   </g>
   <g id="patch_4">
    <path d="M 511.813438 270.9955 
L 511.813438 35.7555 
" style="fill: none; stroke: #000000; stroke-width: 0.8; stroke-linejoin: miter; stroke-linecap: square"/>
   </g>
   <g id="patch_5">
    <path d="M 58.523438 270.9955 
L 511.813438 270.9955 
" style="fill: none; stroke: #000000; stroke-width: 0.8; stroke-linejoin: miter; stroke-linecap: square"/>
   </g>
   <g id="patch_6">
    <path d="M 58.523438 35.7555 
L 511.813438 35.7555 
" style="fill: none; stroke: #000000; stroke-width: 0.8; stroke-linejoin: miter; stroke-linecap: square"/>
   </g>
  </g>
  <g id="axes_2">
   <g id="matplotlib.axis_3">
    <g id="ytick_6">
     <g id="line2d_14">
      <defs>
       <path id="mb0e02ec8ca" d="M 0 0 
L 3.5 0 
" style="stroke: #000000; stroke-width: 0.8"/>
      </defs>
      <g>
       <use xlink:href="#mb0e02ec8ca" x="511.813438" y="260.302797" style="stroke: #000000; stroke-width: 0.8"/>
      </g>
     </g>
     <g id="text_15">
      <!-- 2.250 -->
      <g style="fill: #d62728" transform="translate(518.813438 264.102016) scale(0.1 -0.1)">
       <use xlink:href="#DejaVuSans-32"/>
       <use xlink:href="#DejaVuSans-2e" x="63.623047"/>
       <use xlink:href="#DejaVuSans-32" x="95.410156"/>
       <use xlink:href="#DejaVuSans-35" x="159.033203"/>
       <use xlink:href="#DejaVuSans-30" x="222.65625"/>
      </g>
     </g>
    </g>
    <g id="ytick_7">
     <g id="line2d_15">
      <g>
       <use xlink:href="#mb0e02ec8ca" x="511.813438" y="231.788854" style="stroke: #000000; stroke-width: 0.8"/>
      </g>
     </g>
     <g id="text_16">
      <!-- 2.252 -->
      <g style="fill: #d62728" transform="translate(518.813438 235.588073) scale(0.1 -0.1)">
       <use xlink:href="#DejaVuSans-32"/>
       <use xlink:href="#DejaVuSans-2e" x="63.623047"/>
       <use xlink:href="#DejaVuSans-32" x="95.410156"/>
       <use xlink:href="#DejaVuSans-35" x="159.033203"/>
       <use xlink:href="#DejaVuSans-32" x="222.65625"/>
      </g>
     </g>
    </g>
    <g id="ytick_8">
     <g id="line2d_16">
      <g>
       <use xlink:href="#mb0e02ec8ca" x="511.813438" y="203.274912" style="stroke: #000000; stroke-width: 0.8"/>
      </g>
     </g>
     <g id="text_17">
      <!-- 2.254 -->
      <g style="fill: #d62728" transform="translate(518.813438 207.07413) scale(0.1 -0.1)">
       <use xlink:href="#DejaVuSans-32"/>
       <use xlink:href="#DejaVuSans-2e" x="63.623047"/>
       <use xlink:href="#DejaVuSans-32" x="95.410156"/>
       <use xlink:href="#DejaVuSans-35" x="159.033203"/>
       <use xlink:href="#DejaVuSans-34" x="222.65625"/>
      </g>
     </g>
    </g>
    <g id="ytick_9">
     <g id="line2d_17">
      <g>
       <use xlink:href="#mb0e02ec8ca" x="511.813438" y="174.760969" style="stroke: #000000; stroke-width: 0.8"/>
      </g>
     </g>
     <g id="text_18">
      <!-- 2.256 -->
      <g style="fill: #d62728" transform="translate(518.813438 178.560188) scale(0.1 -0.1)">
       <use xlink:href="#DejaVuSans-32"/>
       <use xlink:href="#DejaVuSans-2e" x="63.623047"/>
       <use xlink:href="#DejaVuSans-32" x="95.410156"/>
       <use xlink:href="#DejaVuSans-35" x="159.033203"/>
       <use xlink:href="#DejaVuSans-36" x="222.65625"/>
      </g>
     </g>
    </g>
    <g id="ytick_10">
     <g id="line2d_18">
      <g>
       <use xlink:href="#mb0e02ec8ca" x="511.813438" y="146.247026" style="stroke: #000000; stroke-width: 0.8"/>
      </g>
     </g>
     <g id="text_19">
      <!-- 2.258 -->
      <g style="fill: #d62728" transform="translate(518.813438 150.046245) scale(0.1 -0.1)">
       <defs>
        <path id="DejaVuSans-38" d="M 2034 2216 
Q 1584 2216 1326 1975 
Q 1069 1734 1069 1313 
Q 1069 891 1326 650 
Q 1584 409 2034 409 
Q 2484 409 2743 651 
Q 3003 894 3003 1313 
Q 3003 1734 2745 1975 
Q 2488 2216 2034 2216 
z
M 1403 2484 
Q 997 2584 770 2862 
Q 544 3141 544 3541 
Q 544 4100 942 4425 
Q 1341 4750 2034 4750 
Q 2731 4750 3128 4425 
Q 3525 4100 3525 3541 
Q 3525 3141 3298 2862 
Q 3072 2584 2669 2484 
Q 3125 2378 3379 2068 
Q 3634 1759 3634 1313 
Q 3634 634 3220 271 
Q 2806 -91 2034 -91 
Q 1263 -91 848 271 
Q 434 634 434 1313 
Q 434 1759 690 2068 
Q 947 2378 1403 2484 
z
M 1172 3481 
Q 1172 3119 1398 2916 
Q 1625 2713 2034 2713 
Q 2441 2713 2670 2916 
Q 2900 3119 2900 3481 
Q 2900 3844 2670 4047 
Q 2441 4250 2034 4250 
Q 1625 4250 1398 4047 
Q 1172 3844 1172 3481 
z
" transform="scale(0.015625)"/>
       </defs>
       <use xlink:href="#DejaVuSans-32"/>
       <use xlink:href="#DejaVuSans-2e" x="63.623047"/>
       <use xlink:href="#DejaVuSans-32" x="95.410156"/>
       <use xlink:href="#DejaVuSans-35" x="159.033203"/>
       <use xlink:href="#DejaVuSans-38" x="222.65625"/>
      </g>
     </g>
    </g>
    <g id="ytick_11">
     <g id="line2d_19">
      <g>
       <use xlink:href="#mb0e02ec8ca" x="511.813438" y="117.733084" style="stroke: #000000; stroke-width: 0.8"/>
      </g>
     </g>
     <g id="text_20">
      <!-- 2.260 -->
      <g style="fill: #d62728" transform="translate(518.813438 121.532303) scale(0.1 -0.1)">
       <use xlink:href="#DejaVuSans-32"/>
       <use xlink:href="#DejaVuSans-2e" x="63.623047"/>
       <use xlink:href="#DejaVuSans-32" x="95.410156"/>
       <use xlink:href="#DejaVuSans-36" x="159.033203"/>
       <use xlink:href="#DejaVuSans-30" x="222.65625"/>
      </g>
     </g>
    </g>
    <g id="ytick_12">
     <g id="line2d_20">
      <g>
       <use xlink:href="#mb0e02ec8ca" x="511.813438" y="89.219141" style="stroke: #000000; stroke-width: 0.8"/>
      </g>
     </g>
     <g id="text_21">
      <!-- 2.262 -->
      <g style="fill: #d62728" transform="translate(518.813438 93.01836) scale(0.1 -0.1)">
       <use xlink:href="#DejaVuSans-32"/>
       <use xlink:href="#DejaVuSans-2e" x="63.623047"/>
       <use xlink:href="#DejaVuSans-32" x="95.410156"/>
       <use xlink:href="#DejaVuSans-36" x="159.033203"/>
       <use xlink:href="#DejaVuSans-32" x="222.65625"/>
      </g>
     </g>
    </g>
    <g id="ytick_13">
     <g id="line2d_21">
      <g>
       <use xlink:href="#mb0e02ec8ca" x="511.813438" y="60.705199" style="stroke: #000000; stroke-width: 0.8"/>
      </g>
     </g>
     <g id="text_22">
      <!-- 2.264 -->
      <g style="fill: #d62728" transform="translate(518.813438 64.504417) scale(0.1 -0.1)">
       <use xlink:href="#DejaVuSans-32"/>
       <use xlink:href="#DejaVuSans-2e" x="63.623047"/>
       <use xlink:href="#DejaVuSans-32" x="95.410156"/>
       <use xlink:href="#DejaVuSans-36" x="159.033203"/>
       <use xlink:href="#DejaVuSans-34" x="222.65625"/>
      </g>
     </g>
    </g>
    <g id="text_23">
     <!-- Dielectric permittivity -->
     <g style="fill: #d62728" transform="translate(559.04 207.704406) rotate(-90) scale(0.1 -0.1)">
      <defs>
       <path id="DejaVuSans-44" d="M 1259 4147 
L 1259 519 
L 2022 519 
Q 2988 519 3436 956 
Q 3884 1394 3884 2338 
Q 3884 3275 3436 3711 
Q 2988 4147 2022 4147 
L 1259 4147 
z
M 628 4666 
L 1925 4666 
Q 3281 4666 3915 4102 
Q 4550 3538 4550 2338 
Q 4550 1131 3912 565 
Q 3275 0 1925 0 
L 628 0 
L 628 4666 
z
" transform="scale(0.015625)"/>
       <path id="DejaVuSans-70" d="M 1159 525 
L 1159 -1331 
L 581 -1331 
L 581 3500 
L 1159 3500 
L 1159 2969 
Q 1341 3281 1617 3432 
Q 1894 3584 2278 3584 
Q 2916 3584 3314 3078 
Q 3713 2572 3713 1747 
Q 3713 922 3314 415 
Q 2916 -91 2278 -91 
Q 1894 -91 1617 61 
Q 1341 213 1159 525 
z
M 3116 1747 
Q 3116 2381 2855 2742 
Q 2594 3103 2138 3103 
Q 1681 3103 1420 2742 
Q 1159 2381 1159 1747 
Q 1159 1113 1420 752 
Q 1681 391 2138 391 
Q 2594 391 2855 752 
Q 3116 1113 3116 1747 
z
" transform="scale(0.015625)"/>
       <path id="DejaVuSans-76" d="M 191 3500 
L 800 3500 
L 1894 563 
L 2988 3500 
L 3597 3500 
L 2284 0 
L 1503 0 
L 191 3500 
z
" transform="scale(0.015625)"/>
       <path id="DejaVuSans-79" d="M 2059 -325 
Q 1816 -950 1584 -1140 
Q 1353 -1331 966 -1331 
L 506 -1331 
L 506 -850 
L 844 -850 
Q 1081 -850 1212 -737 
Q 1344 -625 1503 -206 
L 1606 56 
L 191 3500 
L 800 3500 
L 1894 763 
L 2988 3500 
L 3597 3500 
L 2059 -325 
z
" transform="scale(0.015625)"/>
      </defs>
      <use xlink:href="#DejaVuSans-44"/>
      <use xlink:href="#DejaVuSans-69" x="77.001953"/>
      <use xlink:href="#DejaVuSans-65" x="104.785156"/>
      <use xlink:href="#DejaVuSans-6c" x="166.308594"/>
      <use xlink:href="#DejaVuSans-65" x="194.091797"/>
      <use xlink:href="#DejaVuSans-63" x="255.615234"/>
      <use xlink:href="#DejaVuSans-74" x="310.595703"/>
      <use xlink:href="#DejaVuSans-72" x="349.804688"/>
      <use xlink:href="#DejaVuSans-69" x="390.917969"/>
      <use xlink:href="#DejaVuSans-63" x="418.701172"/>
      <use xlink:href="#DejaVuSans-20" x="473.681641"/>
      <use xlink:href="#DejaVuSans-70" x="505.46875"/>
      <use xlink:href="#DejaVuSans-65" x="568.945312"/>
      <use xlink:href="#DejaVuSans-72" x="630.46875"/>
      <use xlink:href="#DejaVuSans-6d" x="669.832031"/>
      <use xlink:href="#DejaVuSans-69" x="767.244141"/>
      <use xlink:href="#DejaVuSans-74" x="795.027344"/>
      <use xlink:href="#DejaVuSans-74" x="834.236328"/>
      <use xlink:href="#DejaVuSans-69" x="873.445312"/>
      <use xlink:href="#DejaVuSans-76" x="901.228516"/>
      <use xlink:href="#DejaVuSans-69" x="960.408203"/>
      <use xlink:href="#DejaVuSans-74" x="988.191406"/>
      <use xlink:href="#DejaVuSans-79" x="1027.400391"/>
     </g>
    </g>
   </g>
   <g id="line2d_22">
    <path d="M 79.127528 260.302773 
L 143.00021 260.19764 
L 154.675862 259.953726 
L 162.230695 259.584507 
L 167.725119 259.121165 
L 172.532741 258.509985 
L 176.653559 257.775243 
L 180.087574 256.970385 
L 183.521589 255.948114 
L 186.955604 254.662603 
L 189.702816 253.410173 
L 192.450028 251.927419 
L 195.197241 250.183423 
L 197.944453 248.145635 
L 200.691665 245.78034 
L 203.438877 243.053263 
L 206.186089 239.930314 
L 208.933301 236.37846 
L 211.680513 232.366734 
L 214.427725 227.867353 
L 217.174938 222.856935 
L 219.92215 217.317774 
L 222.669362 211.239147 
L 225.416574 204.61861 
L 228.163786 197.463219 
L 231.597801 187.794847 
L 235.031816 177.379303 
L 239.152634 164.023649 
L 243.960256 147.538902 
L 259.069922 94.866685 
L 262.503938 84.089319 
L 265.25115 76.146453 
L 267.998362 68.93732 
L 270.058771 64.079799 
L 272.11918 59.7418 
L 274.179589 55.962834 
L 276.239998 52.777809 
L 277.613604 50.999351 
L 278.98721 49.505667 
L 280.360816 48.303048 
L 281.734422 47.396583 
L 283.108028 46.790121 
L 284.481634 46.486242 
L 285.855241 46.486242 
L 287.228847 46.790121 
L 288.602453 47.396583 
L 289.976059 48.303048 
L 291.349665 49.505667 
L 292.723271 50.999351 
L 294.096877 52.777809 
L 295.470483 54.833585 
L 297.530892 58.418206 
L 299.591301 62.574035 
L 301.65171 67.263032 
L 303.712119 72.442948 
L 306.459331 80.033512 
L 309.206544 88.298678 
L 312.640559 99.391742 
L 316.761377 113.495852 
L 332.557847 168.568511 
L 336.678665 181.630097 
L 340.11268 191.75588 
L 343.546695 201.106928 
L 346.293907 207.996413 
L 349.041119 214.346255 
L 351.788331 220.154296 
L 354.535544 225.427279 
L 357.282756 230.17958 
L 360.029968 234.431906 
L 362.77718 238.209997 
L 365.524392 241.543373 
L 368.271604 244.464169 
L 371.018816 247.006063 
L 373.766028 249.20334 
L 376.513241 251.090077 
L 379.260453 252.699476 
L 382.007665 254.063321 
L 384.754877 255.211572 
L 388.188892 256.385914 
L 391.622907 257.316049 
L 395.743725 258.170673 
L 399.864544 258.800114 
L 404.672165 259.319755 
L 410.853392 259.747528 
L 418.408225 260.03714 
L 429.397074 260.218609 
L 450.687968 260.295785 
L 491.209347 260.302773 
L 491.209347 260.302773 
" clip-path="url(#p001440107f)" style="fill: none; stroke: #d62728; stroke-width: 1.5; stroke-linecap: square"/>
   </g>
   <g id="patch_7">
    <path d="M 58.523438 270.9955 
L 58.523438 35.7555 
" style="fill: none; stroke: #000000; stroke-width: 0.8; stroke-linejoin: miter; stroke-linecap: square"/>
   </g>
   <g id="patch_8">
    <path d="M 511.813438 270.9955 
L 511.813438 35.7555 
" style="fill: none; stroke: #000000; stroke-width: 0.8; stroke-linejoin: miter; stroke-linecap: square"/>
   </g>
   <g id="patch_9">
    <path d="M 58.523438 270.9955 
L 511.813438 270.9955 
" style="fill: none; stroke: #000000; stroke-width: 0.8; stroke-linejoin: miter; stroke-linecap: square"/>
   </g>
   <g id="patch_10">
    <path d="M 58.523438 35.7555 
L 511.813438 35.7555 
" style="fill: none; stroke: #000000; stroke-width: 0.8; stroke-linejoin: miter; stroke-linecap: square"/>
   </g>
   <g id="text_24">
    <!-- Guided mode 5 -->
    <g transform="translate(239.092188 16.318125) scale(0.12 -0.12)">
     <defs>
      <path id="DejaVuSans-47" d="M 3809 666 
L 3809 1919 
L 2778 1919 
L 2778 2438 
L 4434 2438 
L 4434 434 
Q 4069 175 3628 42 
Q 3188 -91 2688 -91 
Q 1594 -91 976 548 
Q 359 1188 359 2328 
Q 359 3472 976 4111 
Q 1594 4750 2688 4750 
Q 3144 4750 3555 4637 
Q 3966 4525 4313 4306 
L 4313 3634 
Q 3963 3931 3569 4081 
Q 3175 4231 2741 4231 
Q 1884 4231 1454 3753 
Q 1025 3275 1025 2328 
Q 1025 1384 1454 906 
Q 1884 428 2741 428 
Q 3075 428 3337 486 
Q 3600 544 3809 666 
z
" transform="scale(0.015625)"/>
      <path id="DejaVuSans-75" d="M 544 1381 
L 544 3500 
L 1119 3500 
L 1119 1403 
Q 1119 906 1312 657 
Q 1506 409 1894 409 
Q 2359 409 2629 706 
Q 2900 1003 2900 1516 
L 2900 3500 
L 3475 3500 
L 3475 0 
L 2900 0 
L 2900 538 
Q 2691 219 2414 64 
Q 2138 -91 1772 -91 
Q 1169 -91 856 284 
Q 544 659 544 1381 
z
M 1991 3584 
L 1991 3584 
z
" transform="scale(0.015625)"/>
     </defs>
     <use xlink:href="#DejaVuSans-47"/>
     <use xlink:href="#DejaVuSans-75" x="77.490234"/>
     <use xlink:href="#DejaVuSans-69" x="140.869141"/>
     <use xlink:href="#DejaVuSans-64" x="168.652344"/>
     <use xlink:href="#DejaVuSans-65" x="232.128906"/>
     <use xlink:href="#DejaVuSans-64" x="293.652344"/>
     <use xlink:href="#DejaVuSans-20" x="357.128906"/>
     <use xlink:href="#DejaVuSans-6d" x="388.916016"/>
     <use xlink:href="#DejaVuSans-6f" x="486.328125"/>
     <use xlink:href="#DejaVuSans-64" x="547.509766"/>
     <use xlink:href="#DejaVuSans-65" x="610.986328"/>
     <use xlink:href="#DejaVuSans-20" x="672.509766"/>
     <use xlink:href="#DejaVuSans-35" x="704.296875"/>
    </g>
    <!--  effective permittivity: 2.2555320496920332 -->
    <g transform="translate(150.02125 29.7555) scale(0.12 -0.12)">
     <defs>
      <path id="DejaVuSans-3a" d="M 750 794 
L 1409 794 
L 1409 0 
L 750 0 
L 750 794 
z
M 750 3309 
L 1409 3309 
L 1409 2516 
L 750 2516 
L 750 3309 
z
" transform="scale(0.015625)"/>
      <path id="DejaVuSans-33" d="M 2597 2516 
Q 3050 2419 3304 2112 
Q 3559 1806 3559 1356 
Q 3559 666 3084 287 
Q 2609 -91 1734 -91 
Q 1441 -91 1130 -33 
Q 819 25 488 141 
L 488 750 
Q 750 597 1062 519 
Q 1375 441 1716 441 
Q 2309 441 2620 675 
Q 2931 909 2931 1356 
Q 2931 1769 2642 2001 
Q 2353 2234 1838 2234 
L 1294 2234 
L 1294 2753 
L 1863 2753 
Q 2328 2753 2575 2939 
Q 2822 3125 2822 3475 
Q 2822 3834 2567 4026 
Q 2313 4219 1838 4219 
Q 1578 4219 1281 4162 
Q 984 4106 628 3988 
L 628 4550 
Q 988 4650 1302 4700 
Q 1616 4750 1894 4750 
Q 2613 4750 3031 4423 
Q 3450 4097 3450 3541 
Q 3450 3153 3228 2886 
Q 3006 2619 2597 2516 
z
" transform="scale(0.015625)"/>
      <path id="DejaVuSans-39" d="M 703 97 
L 703 672 
Q 941 559 1184 500 
Q 1428 441 1663 441 
Q 2288 441 2617 861 
Q 2947 1281 2994 2138 
Q 2813 1869 2534 1725 
Q 2256 1581 1919 1581 
Q 1219 1581 811 2004 
Q 403 2428 403 3163 
Q 403 3881 828 4315 
Q 1253 4750 1959 4750 
Q 2769 4750 3195 4129 
Q 3622 3509 3622 2328 
Q 3622 1225 3098 567 
Q 2575 -91 1691 -91 
Q 1453 -91 1209 -44 
Q 966 3 703 97 
z
M 1959 2075 
Q 2384 2075 2632 2365 
Q 2881 2656 2881 3163 
Q 2881 3666 2632 3958 
Q 2384 4250 1959 4250 
Q 1534 4250 1286 3958 
Q 1038 3666 1038 3163 
Q 1038 2656 1286 2365 
Q 1534 2075 1959 2075 
z
" transform="scale(0.015625)"/>
     </defs>
     <use xlink:href="#DejaVuSans-20"/>
     <use xlink:href="#DejaVuSans-65" x="31.787109"/>
     <use xlink:href="#DejaVuSans-66" x="93.310547"/>
     <use xlink:href="#DejaVuSans-66" x="128.515625"/>
     <use xlink:href="#DejaVuSans-65" x="163.720703"/>
     <use xlink:href="#DejaVuSans-63" x="225.244141"/>
     <use xlink:href="#DejaVuSans-74" x="280.224609"/>
     <use xlink:href="#DejaVuSans-69" x="319.433594"/>
     <use xlink:href="#DejaVuSans-76" x="347.216797"/>
     <use xlink:href="#DejaVuSans-65" x="406.396484"/>
     <use xlink:href="#DejaVuSans-20" x="467.919922"/>
     <use xlink:href="#DejaVuSans-70" x="499.707031"/>
     <use xlink:href="#DejaVuSans-65" x="563.183594"/>
     <use xlink:href="#DejaVuSans-72" x="624.707031"/>
     <use xlink:href="#DejaVuSans-6d" x="664.070312"/>
     <use xlink:href="#DejaVuSans-69" x="761.482422"/>
     <use xlink:href="#DejaVuSans-74" x="789.265625"/>
     <use xlink:href="#DejaVuSans-74" x="828.474609"/>
     <use xlink:href="#DejaVuSans-69" x="867.683594"/>
     <use xlink:href="#DejaVuSans-76" x="895.466797"/>
     <use xlink:href="#DejaVuSans-69" x="954.646484"/>
     <use xlink:href="#DejaVuSans-74" x="982.429688"/>
     <use xlink:href="#DejaVuSans-79" x="1021.638672"/>
     <use xlink:href="#DejaVuSans-3a" x="1073.568359"/>
     <use xlink:href="#DejaVuSans-20" x="1107.259766"/>
     <use xlink:href="#DejaVuSans-32" x="1139.046875"/>
     <use xlink:href="#DejaVuSans-2e" x="1202.669922"/>
     <use xlink:href="#DejaVuSans-32" x="1234.457031"/>
     <use xlink:href="#DejaVuSans-35" x="1298.080078"/>
     <use xlink:href="#DejaVuSans-35" x="1361.703125"/>
     <use xlink:href="#DejaVuSans-35" x="1425.326172"/>
     <use xlink:href="#DejaVuSans-33" x="1488.949219"/>
     <use xlink:href="#DejaVuSans-32" x="1552.572266"/>
     <use xlink:href="#DejaVuSans-30" x="1616.195312"/>
     <use xlink:href="#DejaVuSans-34" x="1679.818359"/>
     <use xlink:href="#DejaVuSans-39" x="1743.441406"/>
     <use xlink:href="#DejaVuSans-36" x="1807.064453"/>
     <use xlink:href="#DejaVuSans-39" x="1870.6875"/>
     <use xlink:href="#DejaVuSans-32" x="1934.310547"/>
     <use xlink:href="#DejaVuSans-30" x="1997.933594"/>
     <use xlink:href="#DejaVuSans-33" x="2061.556641"/>
     <use xlink:href="#DejaVuSans-33" x="2125.179688"/>
     <use xlink:href="#DejaVuSans-32" x="2188.802734"/>
    </g>
   </g>
  </g>
 </g>
 <defs>
  <clipPath id="p001440107f">
   <rect x="58.523438" y="35.7555" width="453.29" height="235.24"/>
  </clipPath>
 </defs>
</svg>
